<svg width="24" height="25" viewBox="0 0 24 25" fill="none" xmlns="http://www.w3.org/2000/svg">
<g filter="url(#filter0_g_706_8345)">
<path d="M13.9311 7.81565C14.8211 8.14184 15.626 8.82042 16.1338 9.77337C16.2626 10.0151 16.3661 10.2628 16.4452 10.5129C16.9882 12.2311 16.3785 14.0643 14.8981 14.8532C14.3776 15.1305 13.81 15.2466 13.2439 15.2192C11.9655 15.1574 10.6948 14.3642 9.99243 13.0461C9.83404 12.7489 9.71392 12.4426 9.63045 12.1338C9.17981 10.467 9.79726 8.72882 11.2281 7.96632C12.0742 7.51543 13.0449 7.49088 13.9311 7.81565Z" fill="#E2C87C"/>
<path d="M13.9311 7.81565C13.0449 7.49088 12.0742 7.51543 11.2281 7.96632C9.79726 8.72882 9.17981 10.467 9.63045 12.1338C5.22575 10.5174 -0.972915 10.5129 4.24791 4.59652C9.14563 -0.953731 13.4064 4.70828 13.9293 7.80513C13.9299 7.80864 13.9305 7.81215 13.9311 7.81565Z" fill="#D9D9D9"/>
<path d="M9.99243 13.0461C10.6948 14.3642 11.9655 15.1574 13.2439 15.2192C13.1511 15.5128 13.1094 15.9481 13.12 16.4636C12.5795 19.5613 10.2685 24.6542 6.14521 21.4578C-0.117339 16.6029 2.62152 12.6096 9.63045 12.1338C9.71392 12.4426 9.83404 12.7489 9.99243 13.0461Z" fill="#D9D9D9"/>
<path d="M14.8981 14.8532C16.3785 14.0643 16.9882 12.2311 16.4452 10.5129C19.7787 11.2027 24.281 14.2721 19.9871 20.1065C15.3931 26.3486 13.1876 19.7631 13.12 16.4636C13.2027 15.9899 13.2439 15.5628 13.2439 15.2192C13.81 15.2466 14.3776 15.1305 14.8981 14.8532Z" fill="#D9D9D9"/>
<path d="M16.1338 9.77337C15.626 8.82042 14.8211 8.14184 13.9311 7.81565L13.9293 7.80513C13.4755 5.06746 16.7078 0.507603 19.373 3.0628C22.0416 5.62127 23.0583 9.77419 16.4452 10.5129C16.3661 10.2628 16.2626 10.0151 16.1338 9.77337Z" fill="#D9D9D9"/>
<path d="M13.9311 7.81565C14.8211 8.14184 15.626 8.82042 16.1338 9.77337C16.2626 10.0151 16.3661 10.2628 16.4452 10.5129M13.9311 7.81565C13.0449 7.49088 12.0742 7.51543 11.2281 7.96632C9.79726 8.72882 9.17981 10.467 9.63045 12.1338M13.9311 7.81565C13.9305 7.81215 13.9299 7.80864 13.9293 7.80513M13.9311 7.81565L13.9293 7.80513M16.4452 10.5129C16.9882 12.2311 16.3785 14.0643 14.8981 14.8532C14.3776 15.1305 13.81 15.2466 13.2439 15.2192M16.4452 10.5129C23.0583 9.7742 22.0416 5.62127 19.373 3.0628C16.7078 0.507602 13.4755 5.06746 13.9293 7.80513M16.4452 10.5129C19.7787 11.2027 24.281 14.2721 19.9871 20.1065C15.3931 26.3486 13.1876 19.7631 13.12 16.4636M13.2439 15.2192C11.9655 15.1574 10.6948 14.3642 9.99243 13.0461C9.83404 12.7489 9.71392 12.4426 9.63045 12.1338M13.2439 15.2192C13.1511 15.5128 13.1094 15.9481 13.12 16.4636M13.2439 15.2192C13.2439 15.5628 13.2027 15.9899 13.12 16.4636M9.63045 12.1338C2.62152 12.6096 -0.117338 16.6029 6.14521 21.4578C10.2685 24.6542 12.5795 19.5613 13.12 16.4636M9.63045 12.1338C5.22575 10.5174 -0.972915 10.5129 4.24791 4.59652C9.14563 -0.953731 13.4064 4.70828 13.9293 7.80513" stroke="black" stroke-width="2.2"/>
</g>
<defs>
<filter id="filter0_g_706_8345" x="0.000226974" y="-1.71661e-05" width="24.0025" height="24.9532" filterUnits="userSpaceOnUse" color-interpolation-filters="sRGB">
<feFlood flood-opacity="0" result="BackgroundImageFix"/>
<feBlend mode="normal" in="SourceGraphic" in2="BackgroundImageFix" result="shape"/>
<feTurbulence type="fractalNoise" baseFrequency="0.14417244493961334 0.14417244493961334" numOctaves="3" seed="5141" />
<feDisplacementMap in="shape" scale="2.3120460510253906" xChannelSelector="R" yChannelSelector="G" result="displacedImage" width="100%" height="100%" />
<feMerge result="effect1_texture_706_8345">
<feMergeNode in="displacedImage"/>
</feMerge>
</filter>
</defs>
</svg>
