<svg width="69" height="35" viewBox="0 0 69 35" fill="none" xmlns="http://www.w3.org/2000/svg">
<ellipse cx="17.5381" cy="6.83138" rx="12.1406" ry="12.262" transform="rotate(15 17.5381 6.83138)" fill="#D9D9D9" fill-opacity="0.8" style="mix-blend-mode:soft-light"/>
<ellipse cx="50.8942" cy="16.804" rx="12.2538" ry="12.3763" transform="rotate(15 50.8942 16.804)" fill="#D9D9D9" fill-opacity="0.8" style="mix-blend-mode:soft-light"/>
<g filter="url(#filter0_g_706_8352)">
<path fill-rule="evenodd" clip-rule="evenodd" d="M54.989 3.64619C62.1487 5.88596 66.2552 13.4409 64.1856 20.6968L64.0828 21.04C61.8431 28.1998 54.2879 32.3062 47.0319 30.2366L46.6887 30.1338C39.8012 27.9792 35.7403 20.906 37.2838 13.912C37.1883 13.8881 37.1652 13.7579 37.0803 13.6999L36.9485 13.5255L36.8438 13.3867C36.3358 13.2206 36.5575 12.2913 34.4317 11.9064C33.533 11.5656 32.0064 11.2353 31.1425 11.4903L31.0572 11.5107C30.9142 11.5376 30.7715 11.526 30.6399 11.4837C28.2224 18.3515 20.8421 22.2338 13.7467 20.21L13.4038 20.1073C6.35757 17.9031 2.26882 10.551 4.11348 3.4022L4.20726 3.05638C6.30978 -4.31459 13.9895 -8.58558 21.3605 -6.48319L21.7038 -6.38042C28.5569 -4.23659 32.6117 2.77671 31.1317 9.73652C32.3235 9.51219 34.0742 9.67303 35.0419 10.0401C37.3338 10.9094 37.2123 11.4838 37.7672 11.9063C40.205 5.07348 47.5697 1.52513 54.6457 3.54342L54.989 3.64619ZM20.8916 -4.8392C14.4285 -6.68262 7.69478 -2.93773 5.85124 3.5253C4.00774 9.98841 7.75258 16.7224 14.2157 18.566C20.6788 20.4095 27.4129 16.6644 29.2564 10.2013C31.0999 3.73816 27.3547 -2.99571 20.8916 -4.8392ZM54.1768 5.1874C47.7137 3.34395 40.98 7.08886 39.1364 13.5519C37.2929 20.015 41.0377 26.7491 47.5008 28.5926C53.964 30.4361 60.6981 26.691 62.5416 20.2279C64.3851 13.7648 60.6399 7.0309 54.1768 5.1874Z" fill="black"/>
</g>
<defs>
<filter id="filter0_g_706_8352" x="3.39781" y="-7.29257" width="61.5969" height="38.3386" filterUnits="userSpaceOnUse" color-interpolation-filters="sRGB">
<feFlood flood-opacity="0" result="BackgroundImageFix"/>
<feBlend mode="normal" in="SourceGraphic" in2="BackgroundImageFix" result="shape"/>
<feTurbulence type="fractalNoise" baseFrequency="0.76967066526412964 0.76967066526412964" numOctaves="3" seed="5141" />
<feDisplacementMap in="shape" scale="0.54705560207366943" xChannelSelector="R" yChannelSelector="G" result="displacedImage" width="100%" height="100%" />
<feMerge result="effect1_texture_706_8352">
<feMergeNode in="displacedImage"/>
</feMerge>
</filter>
</defs>
</svg>
