<svg width="90" height="48" viewBox="0 0 90 48" fill="none" xmlns="http://www.w3.org/2000/svg">
<path d="M68.6692 15.4278C69.2718 18.3805 69.8001 23.1532 69.8001 23.1532C72.7606 23.7064 93.7997 28.1839 86.2131 29.6519C77.8943 31.2617 52.291 30.0195 42.6622 28.6147C28.6094 26.5645 5.88618 21.6677 2.06042 15.4278C0.129989 12.2792 12.1484 14.7319 17.2617 15.4278C17.2617 15.4278 18.9031 11.2257 20.3096 8.40231C23.8519 1.2912 37.5063 -1.0982 45.1789 -0.501621C54.0051 0.184642 66.8289 6.41032 68.6692 15.4278Z" fill="#EA9F4D"/>
<path d="M30.3068 20.3029C25.1544 18.8345 17.4599 15.4377 17.4599 15.4377L18.4881 12.8215C18.4881 12.8215 26.9231 16.0976 31.6874 17.5112C39.6914 19.8858 43.1523 19.9375 51.4754 20.3029C58.4624 20.6097 69.3771 19.8344 69.3771 19.8344L69.9854 23.1777C69.9854 23.1777 58.6918 23.8407 51.4754 23.4001C43.1399 22.8911 38.3533 22.5962 30.3068 20.3029Z" fill="#C5773C"/>
<path d="M68.6692 15.4278C69.2718 18.3805 69.8001 23.1532 69.8001 23.1532C72.7606 23.7064 93.7997 28.1839 86.2131 29.6519C77.8943 31.2617 52.291 30.0195 42.6622 28.6147C28.6094 26.5645 5.88618 21.6677 2.06042 15.4278C0.129989 12.2792 12.1484 14.7319 17.2617 15.4278C17.2617 15.4278 18.9031 11.2257 20.3096 8.40231C23.8519 1.2912 37.5063 -1.0982 45.1789 -0.501621C54.0051 0.184642 66.8289 6.41032 68.6692 15.4278Z" stroke="#C5773C" stroke-width="3.70072" stroke-linejoin="round"/>
<path d="M30.3068 20.3029C25.1544 18.8345 17.4599 15.4377 17.4599 15.4377L18.4881 12.8215C18.4881 12.8215 26.9231 16.0976 31.6874 17.5112C39.6914 19.8858 43.1523 19.9375 51.4754 20.3029C58.4624 20.6097 69.3771 19.8344 69.3771 19.8344L69.9854 23.1777C69.9854 23.1777 58.6918 23.8407 51.4754 23.4001C43.1399 22.8911 38.3533 22.5962 30.3068 20.3029Z" stroke="#C5773C" stroke-width="3.70072" stroke-linejoin="round"/>
</svg>
