<svg width="215" height="258" viewBox="0 0 215 258" fill="none" xmlns="http://www.w3.org/2000/svg">
<g filter="url(#filter0_g_757_17709)">
<mask id="mask0_757_17709" style="mask-type:alpha" maskUnits="userSpaceOnUse" x="1" y="18" width="213" height="239">
<path d="M15.2002 19.4526H199.2C206.38 19.4526 212.2 25.2729 212.2 32.4526V242.768C212.2 249.948 206.38 255.768 199.2 255.768H15.2002C8.02066 255.768 2.20046 249.948 2.2002 242.768V32.4526C2.2002 25.2729 8.02049 19.4526 15.2002 19.4526Z" fill="#F1C176" stroke="#634120" stroke-width="2"/>
</mask>
<g mask="url(#mask0_757_17709)">
<path d="M1.2002 32.4526C1.2002 24.7207 7.46821 18.4526 15.2002 18.4526H199.2C206.932 18.4526 213.2 24.7207 213.2 32.4526V242.768C213.2 250.5 206.932 256.768 199.2 256.768H15.2002C7.4682 256.768 1.2002 250.5 1.2002 242.768V32.4526Z" fill="#F1C176"/>
<circle cx="104.045" cy="266.255" r="119.481" fill="#FFE8C4"/>
<g filter="url(#filter1_g_757_17709)">
<mask id="mask1_757_17709" style="mask-type:alpha" maskUnits="userSpaceOnUse" x="56" y="238" width="27" height="49">
<path d="M78.5856 276.392C76.0056 286.021 70.3392 287.786 64.3619 286.184C58.3846 284.582 54.3598 280.221 56.9398 270.592C62.9553 248.142 71.1817 236.812 77.159 238.414C83.1364 240.016 84.1013 255.807 78.5856 276.392Z" fill="#FEC691"/>
</mask>
<g mask="url(#mask1_757_17709)">
<rect x="64.415" y="229.719" width="33.511" height="54.556" transform="rotate(15 64.415 229.719)" fill="#FEC691"/>
<g filter="url(#filter2_g_757_17709)">
<path d="M87.9016 242.05C77.6132 247.307 72.6163 240.363 70.4896 229.733C68.3629 219.104 69.9118 208.815 80.2003 203.558C90.4887 198.301 100.553 202.656 102.68 213.285C104.806 223.914 98.1901 236.793 87.9016 242.05Z" fill="#E07653"/>
</g>
<g filter="url(#filter3_g_757_17709)">
<path d="M80.8341 232.56C85.0246 234.232 85.3901 245.257 84.0526 254.775C80.8723 258.594 76.7238 258.736 72.5341 257.064C68.3447 255.393 65.2698 252.368 65.1256 247.223C69.7866 239.031 76.6437 230.888 80.8341 232.56Z" fill="#6F9F4F"/>
</g>
</g>
<mask id="mask2_757_17709" style="mask-type:alpha" maskUnits="userSpaceOnUse" x="128" y="238" width="27" height="49">
<path d="M132.139 276.397C134.719 286.026 140.385 287.791 146.363 286.189C152.34 284.587 156.365 280.226 153.785 270.597C147.769 248.147 139.543 236.817 133.566 238.419C127.588 240.02 126.623 255.812 132.139 276.397Z" fill="#FEC691"/>
</mask>
<g mask="url(#mask2_757_17709)">
</g>
<mask id="mask3_757_17709" style="mask-type:alpha" maskUnits="userSpaceOnUse" x="128" y="238" width="27" height="49">
<path d="M132.135 276.395C134.715 286.024 140.381 287.789 146.359 286.187C152.336 284.585 156.361 280.224 153.781 270.595C147.765 248.145 139.539 236.815 133.562 238.417C127.584 240.018 126.619 255.81 132.135 276.395Z" fill="#FEC691"/>
</mask>
<g mask="url(#mask3_757_17709)">
<rect width="33.511" height="54.556" transform="matrix(-0.965926 0.258819 0.258819 0.965926 146.307 229.722)" fill="#FEC691"/>
<g filter="url(#filter4_g_757_17709)">
<path d="M122.82 242.053C133.108 247.31 138.105 240.366 140.232 229.737C142.359 219.107 140.81 208.818 130.521 203.561C120.233 198.304 110.169 202.659 108.042 213.289C105.915 223.918 112.532 236.796 122.82 242.053Z" fill="#E07653"/>
</g>
<g filter="url(#filter5_g_757_17709)">
<path d="M129.887 232.563C125.696 234.235 125.33 245.259 126.667 254.776C129.848 258.596 133.996 258.739 138.186 257.067C142.376 255.395 145.451 252.37 145.594 247.225C140.934 239.033 134.077 230.892 129.887 232.563Z" fill="#6F9F4F"/>
</g>
</g>
<g filter="url(#filter6_g_757_17709)">
<circle cx="43.1685" cy="203.007" r="13.2476" fill="#FEC691"/>
</g>
<g filter="url(#filter7_g_757_17709)">
<circle cx="47.9491" cy="203.007" r="12.0272" fill="#E07653" fill-opacity="0.41"/>
</g>
<g filter="url(#filter8_g_757_17709)">
<circle cx="13.2476" cy="13.2476" r="13.2476" transform="matrix(-1 0 0 1 182.242 189.759)" fill="#FEC691"/>
</g>
<g filter="url(#filter9_g_757_17709)">
<circle cx="12.0272" cy="12.0272" r="12.0272" transform="matrix(-1 0 0 1 176.241 190.98)" fill="#E07653" fill-opacity="0.41"/>
</g>
<mask id="mask4_757_17709" style="mask-type:alpha" maskUnits="userSpaceOnUse" x="71" y="197" width="70" height="110">
<path d="M140.607 272.268C140.607 297.939 140.607 306.106 105.846 306.106C71.084 306.106 71.084 297.939 71.084 272.268C71.084 246.597 86.6473 197.184 105.846 197.184C125.044 197.184 140.607 246.597 140.607 272.268Z" fill="#FEC691"/>
</mask>
<g mask="url(#mask4_757_17709)">
<rect x="60.6797" y="217.369" width="103.965" height="107.173" fill="#FEC691"/>
<g filter="url(#filter10_g_757_17709)">
<path d="M154.44 206.022C154.44 241.907 132.684 253.323 105.847 253.323C79.0104 253.323 57.2549 241.907 57.2549 206.022C57.2549 170.136 79.0104 141.045 105.847 141.045C132.684 141.045 154.44 170.136 154.44 206.022Z" fill="#F1A477"/>
</g>
<g filter="url(#filter11_g_757_17709)">
<path d="M140.912 318.355H70.7637V235.187H86.7891C86.7763 235.39 86.7686 235.595 86.7686 235.8C86.7689 243.268 95.3066 249.321 105.838 249.321C116.369 249.321 124.907 243.268 124.907 235.8C124.907 235.595 124.9 235.39 124.887 235.187H140.912V318.355Z" fill="#6F9F4F"/>
</g>
</g>
<mask id="mask5_757_17709" style="mask-type:alpha" maskUnits="userSpaceOnUse" x="40" y="136" width="131" height="105">
<path d="M170.82 194.517C170.82 233.021 141.729 240.209 105.843 240.209C69.9581 240.209 40.8672 233.021 40.8672 194.517C40.8672 156.014 69.9581 136.669 105.843 136.669C141.729 136.669 170.82 156.014 170.82 194.517Z" fill="#FEC691"/>
</mask>
<g mask="url(#mask5_757_17709)">
<rect x="26.7549" y="135.26" width="159.611" height="128.949" fill="#FEC691"/>
<g filter="url(#filter12_g_757_17709)">
<circle cx="53.9519" cy="222.72" r="14.1257" fill="#E07653" fill-opacity="0.41"/>
</g>
<g filter="url(#filter13_g_757_17709)">
<circle cx="156.694" cy="222.72" r="14.1257" fill="#E07653" fill-opacity="0.41"/>
</g>
</g>
</g>
<mask id="mask6_757_17709" style="mask-type:alpha" maskUnits="userSpaceOnUse" x="54" y="194" width="38" height="21">
<ellipse cx="73.2139" cy="204.351" rx="18.2452" ry="9.80283" fill="#FFF8D5"/>
</mask>
<g mask="url(#mask6_757_17709)">
<g filter="url(#filter14_g_757_17709)">
<ellipse cx="73.2139" cy="204.351" rx="18.2452" ry="9.80283" fill="#FFF8D5"/>
</g>
<g filter="url(#filter15_g_757_17709)">
<ellipse cx="73.2137" cy="203.284" rx="12.3064" ry="12.8489" fill="#482F16"/>
</g>
<g filter="url(#filter16_g_757_17709)">
<ellipse cx="65.5617" cy="199.216" rx="3.06069" ry="3.1956" fill="#FFF8D5"/>
</g>
</g>
<g filter="url(#filter17_g_757_17709)">
<path d="M54.9688 203.023L56.045 201.569C63.5715 191.398 78.2768 190.047 87.5296 198.678L91.4708 202.354" stroke="#482F16" stroke-width="3.53143" stroke-linecap="round"/>
</g>
<g filter="url(#filter18_g_757_17709)">
<path d="M53.8272 207.984C54.0348 208.374 54.2423 208.763 54.4499 209.153C54.5363 209.19 54.6209 209.224 54.7038 209.255C55.4501 209.533 56.0563 209.548 56.5224 209.299C56.9885 209.051 57.3144 208.54 57.5003 207.765C57.521 207.679 57.5399 207.59 57.5571 207.498C57.3496 207.108 57.142 206.718 56.9345 206.329C56.8481 206.291 56.7634 206.257 56.6805 206.227C55.9342 205.949 55.328 205.934 54.862 206.183C54.3959 206.431 54.0699 206.942 53.884 207.716C53.8633 207.802 53.8444 207.892 53.8272 207.984Z" fill="#482F16"/>
</g>
<g filter="url(#filter19_g_757_17709)">
<path d="M58.2214 212.074C58.6357 212.226 59.05 212.379 59.4643 212.531C59.5465 212.521 59.6254 212.509 59.7007 212.496C60.379 212.378 60.7776 212.157 60.8966 211.834C61.0156 211.511 60.8549 211.084 60.4146 210.555C60.3657 210.496 60.3133 210.436 60.2575 210.375C59.8432 210.222 59.4289 210.07 59.0146 209.918C58.9323 209.928 58.8535 209.94 58.7782 209.953C58.0999 210.071 57.7013 210.291 57.5823 210.615C57.4633 210.938 57.624 211.365 58.0643 211.894C58.1132 211.953 58.1656 212.013 58.2214 212.074Z" fill="#482F16"/>
</g>
<mask id="mask7_757_17709" style="mask-type:alpha" maskUnits="userSpaceOnUse" x="118" y="194" width="37" height="21">
<ellipse cx="18.2452" cy="9.80283" rx="18.2452" ry="9.80283" transform="matrix(-1 0 0 1 154.842 194.548)" fill="#FFF8D5"/>
</mask>
<g mask="url(#mask7_757_17709)">
<g filter="url(#filter20_g_757_17709)">
<ellipse cx="18.2452" cy="9.80283" rx="18.2452" ry="9.80283" transform="matrix(-1 0 0 1 154.842 194.548)" fill="#FFF8D5"/>
</g>
<g filter="url(#filter21_g_757_17709)">
<ellipse cx="12.3064" cy="12.8489" rx="12.3064" ry="12.8489" transform="matrix(-1 0 0 1 148.903 190.435)" fill="#482F16"/>
</g>
<g filter="url(#filter22_g_757_17709)">
<ellipse cx="3.06069" cy="3.1956" rx="3.06069" ry="3.1956" transform="matrix(-1 0 0 1 129.888 196.021)" fill="#FFF8D5"/>
</g>
</g>
<g filter="url(#filter23_g_757_17709)">
<path d="M154.842 203.023L153.766 201.569C146.239 191.398 131.534 190.047 122.281 198.678L118.34 202.354" stroke="#482F16" stroke-width="3.53143" stroke-linecap="round"/>
</g>
<g filter="url(#filter24_g_757_17709)">
<path d="M155.983 207.984C155.776 208.374 155.568 208.763 155.361 209.153C155.274 209.19 155.19 209.224 155.107 209.255C154.36 209.533 153.754 209.548 153.288 209.299C152.822 209.051 152.496 208.54 152.31 207.765C152.29 207.679 152.271 207.59 152.253 207.498C152.461 207.108 152.669 206.718 152.876 206.329C152.962 206.291 153.047 206.257 153.13 206.227C153.876 205.949 154.483 205.934 154.949 206.183C155.415 206.431 155.741 206.942 155.927 207.716C155.947 207.802 155.966 207.892 155.983 207.984Z" fill="#482F16"/>
</g>
<g filter="url(#filter25_g_757_17709)">
<path d="M151.589 212.074C151.175 212.226 150.761 212.379 150.346 212.531C150.264 212.521 150.185 212.509 150.11 212.496C149.432 212.378 149.033 212.157 148.914 211.834C148.795 211.511 148.956 211.084 149.396 210.555C149.445 210.496 149.497 210.436 149.553 210.375C149.967 210.222 150.382 210.07 150.796 209.918C150.878 209.928 150.957 209.94 151.032 209.953C151.711 210.071 152.109 210.291 152.228 210.615C152.347 210.938 152.187 211.365 151.746 211.894C151.697 211.953 151.645 212.013 151.589 212.074Z" fill="#482F16"/>
</g>
<g filter="url(#filter26_g_757_17709)">
<path d="M104.902 217.031L110.02 219.204L114.752 217.031" stroke="#E07653" stroke-width="3.53143" stroke-linecap="round"/>
</g>
<g filter="url(#filter27_g_757_17709)">
<path d="M104.261 217.031L99.1433 219.204L94.4108 217.031" stroke="#E07653" stroke-width="3.53143" stroke-linecap="round"/>
</g>
<g filter="url(#filter28_g_757_17709)">
<path d="M62.501 183.635C66.2246 180.703 71.0727 179.539 75.717 180.484" stroke="#482F16" stroke-width="3.53143" stroke-linecap="round"/>
</g>
<g filter="url(#filter29_g_757_17709)">
<path d="M145.766 184.805C142.042 181.873 137.194 180.708 132.55 181.653" stroke="#482F16" stroke-width="3.53143" stroke-linecap="round"/>
</g>
<g filter="url(#filter30_g_757_17709)">
<path d="M63.9413 131.845C63.9413 131.845 72.5868 127.303 78.387 125.021C87.8206 121.31 95.6884 118.475 105.338 121.554C109.998 123.041 113.962 125.021 113.962 125.021L127.603 129.864C127.603 129.864 128.804 121.925 126.392 115.997C124.411 111.126 117.727 105.793 117.727 105.793C117.727 105.793 126.218 106.302 130.972 108.353C137.397 111.125 141.275 120.667 141.275 120.667L127.603 129.864C127.603 129.864 139.373 129.322 147.114 131.845C154.715 134.321 160.965 142.851 160.965 142.851L169.641 158.935C169.641 158.935 173.301 163.55 178.741 164.788C183.507 165.873 187.035 165.742 187.035 165.742C187.035 165.742 182.775 173.59 177.98 175.427C173.528 177.132 172.485 177.045 172.245 176.879C172.579 177.522 174.039 180.402 174.53 182.49C175.68 187.377 173.254 195.294 173.254 195.294L169.641 206.362L157.757 191.555L145.872 176.748V189.734L137.895 180.269L129.917 170.805C129.917 170.805 126.925 174.952 127.603 178.949C128.282 182.946 122.604 191.275 122.604 191.275V182.361C122.604 177.624 120.646 170.805 120.646 170.805C120.646 170.805 119.507 177.043 116.855 181.04C114.203 185.037 110.356 191.555 110.356 191.555L105.338 178.949L102.66 196.576L93.361 182.49L88.0893 170.805V188.003C88.0893 188.003 85.6091 180.14 82.9147 177.518L76.0153 170.805L73.0948 180.269L70.1743 189.734L66.411 182.361L62.6476 174.987C62.6476 174.987 52.0554 182.603 48.2019 189.734C45.5525 194.638 43.8898 203.381 43.8898 203.381L37.852 191.275V180.49L28.7972 189.734C28.7972 189.734 28.0565 184.02 28.7972 180.49C30.2717 173.463 39.5776 165.742 39.5776 165.742C39.5776 165.742 36.6112 165.006 34.8342 164.201C30.5656 162.268 25.5586 156.497 25.5586 156.497C25.5586 156.497 28.9877 156.713 31.1682 156.498C40.1716 155.609 51.436 145.052 51.436 145.052C51.436 145.052 46.3877 144.664 43.8898 142.851C39.5917 139.731 39.3591 129.864 39.3591 129.864C39.3591 129.864 46.6361 134.538 51.436 134.925C56.236 135.312 63.9413 131.845 63.9413 131.845Z" fill="#5A421B"/>
<path d="M117.832 104.03L117.727 105.793L117.833 104.03H117.835C117.836 104.03 117.839 104.031 117.842 104.031C117.847 104.032 117.854 104.032 117.862 104.032C117.88 104.033 117.907 104.035 117.94 104.037C118.008 104.042 118.106 104.048 118.231 104.058C118.482 104.076 118.843 104.106 119.289 104.146C120.181 104.228 121.42 104.359 122.813 104.556C125.553 104.942 129.063 105.607 131.671 106.731C135.378 108.331 138.191 111.779 140.014 114.588C140.946 116.025 141.665 117.367 142.151 118.35C142.395 118.842 142.582 119.248 142.709 119.533C142.772 119.676 142.821 119.789 142.854 119.868C142.871 119.908 142.885 119.94 142.895 119.962C142.899 119.973 142.903 119.983 142.905 119.989C142.907 119.992 142.907 119.995 142.908 119.997C142.909 119.998 142.91 119.999 142.91 120V120.001V120.002C143.225 120.776 142.954 121.665 142.261 122.132L133.387 128.101C133.759 128.113 134.143 128.126 134.537 128.145C138.488 128.326 143.559 128.829 147.661 130.166C151.843 131.529 155.539 134.502 158.12 137.011C159.428 138.281 160.487 139.47 161.221 140.343C161.588 140.78 161.876 141.14 162.073 141.394C162.172 141.52 162.249 141.62 162.302 141.69L162.381 141.796C162.383 141.799 162.384 141.801 162.386 141.803C162.386 141.804 162.387 141.805 162.388 141.806L162.389 141.807C162.388 141.808 162.353 141.833 161.068 142.774L162.389 141.808C162.437 141.873 162.48 141.941 162.519 142.013L171.11 157.939C171.122 157.953 171.134 157.968 171.147 157.983C171.242 158.093 171.387 158.257 171.58 158.461C171.967 158.87 172.541 159.433 173.271 160.032C174.748 161.244 176.777 162.53 179.133 163.066C181.411 163.585 183.392 163.813 184.798 163.911C185.5 163.96 186.055 163.976 186.43 163.98C186.616 163.983 186.758 163.982 186.85 163.98C186.895 163.98 186.929 163.979 186.949 163.979C186.959 163.978 186.966 163.978 186.97 163.978H187.088C187.677 163.995 188.223 164.306 188.536 164.812C188.849 165.317 188.886 165.943 188.641 166.479L188.587 166.585V166.586L188.585 166.588C188.584 166.59 188.583 166.592 188.582 166.595C188.579 166.6 188.575 166.607 188.57 166.616C188.56 166.634 188.545 166.66 188.527 166.692C188.491 166.757 188.439 166.849 188.372 166.965C188.238 167.197 188.043 167.528 187.795 167.928C187.3 168.726 186.586 169.813 185.712 170.964C184.029 173.18 181.509 175.966 178.611 177.076C177.023 177.685 175.819 178.082 174.901 178.336C175.414 179.491 175.967 180.885 176.249 182.086C176.912 184.904 176.53 188.411 176.062 191.035C175.821 192.383 175.543 193.569 175.326 194.418C175.217 194.843 175.122 195.187 175.055 195.426C175.021 195.545 174.994 195.639 174.975 195.704C174.965 195.737 174.958 195.762 174.952 195.78C174.949 195.789 174.947 195.797 174.945 195.802C174.945 195.804 174.944 195.806 174.943 195.808V195.81L174.942 195.811V195.812C174.939 195.822 174.936 195.832 174.933 195.842L171.319 206.909C171.118 207.525 170.596 207.982 169.958 208.099C169.32 208.215 168.669 207.972 168.264 207.467L156.38 192.66L147.638 181.768V189.734C147.638 190.476 147.174 191.138 146.478 191.393C145.781 191.647 145 191.439 144.522 190.872L136.545 181.407L130.211 173.893C130.183 173.954 130.154 174.015 130.127 174.078C129.52 175.485 129.088 177.145 129.344 178.653C129.587 180.084 129.249 181.688 128.787 183.107C128.309 184.576 127.617 186.086 126.927 187.422C126.233 188.764 125.52 189.971 124.982 190.84C124.713 191.275 124.486 191.629 124.325 191.875C124.245 191.998 124.18 192.095 124.136 192.162C124.114 192.195 124.096 192.221 124.084 192.239C124.078 192.248 124.073 192.256 124.069 192.261C124.068 192.263 124.066 192.265 124.065 192.267L124.063 192.269V192.27C123.627 192.91 122.824 193.19 122.084 192.962C121.344 192.734 120.838 192.05 120.838 191.275V182.36C120.838 181.009 120.662 179.439 120.412 177.899C119.857 179.301 119.168 180.748 118.326 182.017C117.021 183.984 115.411 186.588 114.12 188.713C113.476 189.773 112.915 190.708 112.515 191.379C112.315 191.714 112.155 191.983 112.045 192.168C111.99 192.26 111.947 192.332 111.919 192.38C111.905 192.404 111.894 192.422 111.887 192.435C111.883 192.44 111.881 192.445 111.879 192.448C111.878 192.45 111.877 192.451 111.877 192.451V192.452L110.355 191.555L111.876 192.452C111.534 193.032 110.891 193.367 110.22 193.315C109.548 193.263 108.964 192.834 108.715 192.208L106.105 185.652L104.406 196.842C104.296 197.564 103.753 198.144 103.039 198.301C102.325 198.458 101.589 198.159 101.187 197.549L91.8877 183.463C91.8359 183.384 91.7896 183.302 91.751 183.217L89.8555 179.015V188.003C89.8555 188.874 89.2195 189.615 88.3584 189.748C87.4971 189.881 86.6674 189.365 86.4053 188.534C86.4051 188.534 86.4047 188.532 86.4043 188.531C86.4034 188.528 86.4024 188.524 86.4004 188.518C86.3963 188.505 86.3896 188.484 86.3809 188.457C86.3634 188.403 86.3367 188.322 86.3018 188.217C86.2317 188.006 86.1274 187.699 85.9941 187.321C85.7272 186.565 85.3452 185.532 84.8828 184.424C84.4188 183.312 83.8837 182.147 83.3145 181.117C82.7317 180.063 82.1715 179.258 81.6836 178.783L76.8516 174.081L74.7822 180.79L71.8613 190.255C71.6494 190.942 71.0422 191.431 70.3262 191.493C69.6103 191.555 68.9283 191.177 68.6016 190.537L64.8379 183.163L62.0332 177.668C62.0292 177.671 62.0255 177.675 62.0215 177.678C60.9904 178.486 59.5761 179.636 58.0459 181.003C54.9412 183.776 51.5274 187.293 49.7549 190.573C48.5343 192.832 47.4996 196.075 46.7588 198.852C46.3935 200.22 46.1081 201.441 45.915 202.318C45.8186 202.756 45.7453 203.108 45.6963 203.349C45.6719 203.468 45.6537 203.561 45.6416 203.622C45.6356 203.653 45.6308 203.677 45.6279 203.691C45.6266 203.698 45.6256 203.704 45.625 203.707L45.624 203.711C45.4825 204.455 44.8823 205.026 44.1318 205.13C43.3812 205.234 42.6477 204.847 42.3096 204.169L36.2715 192.063C36.1495 191.819 36.086 191.549 36.0859 191.275V184.815L30.0586 190.97C29.5854 191.453 28.8776 191.623 28.2363 191.408C27.6354 191.207 27.1912 190.701 27.0664 190.086L27.0459 189.961V189.959C27.0457 189.958 27.0452 189.956 27.0449 189.954C27.0445 189.95 27.0437 189.946 27.043 189.939C27.0413 189.927 27.039 189.908 27.0361 189.885C27.0304 189.838 27.0226 189.77 27.0127 189.684C26.9929 189.511 26.9655 189.264 26.9355 188.958C26.8756 188.346 26.8039 187.493 26.7559 186.523C26.662 184.628 26.6498 182.126 27.0693 180.127C27.909 176.125 30.8873 172.141 33.4238 169.304C34.3664 168.249 35.2828 167.317 36.0674 166.556C35.3971 166.332 34.7017 166.08 34.1055 165.81C31.6877 164.715 29.1905 162.614 27.3838 160.909C26.4592 160.037 25.6744 159.228 25.1201 158.638C24.8426 158.342 24.6215 158.1 24.4688 157.93C24.3925 157.845 24.3331 157.778 24.292 157.731L24.2305 157.661C24.229 157.659 24.2275 157.658 24.2266 157.657L24.2256 157.655L24.2246 157.654C23.7586 157.117 23.6604 156.352 23.9756 155.715C24.2911 155.077 24.9589 154.691 25.6689 154.735H25.6768C25.6823 154.736 25.6908 154.737 25.7021 154.737C25.7257 154.739 25.7619 154.741 25.8086 154.743C25.9021 154.748 26.0396 154.756 26.2119 154.764C26.557 154.78 27.0398 154.8 27.5879 154.813C28.7045 154.84 30.0177 154.837 30.9951 154.74C35.0099 154.344 39.7542 151.724 43.668 148.993C45.0956 147.997 46.3733 147.014 47.415 146.173C45.9315 145.815 44.1698 145.236 42.8525 144.28C41.4389 143.254 40.4573 141.753 39.7637 140.242C39.0633 138.717 38.5978 137.052 38.2842 135.548C37.969 134.036 37.7973 132.635 37.7041 131.615C37.6574 131.104 37.6301 130.684 37.6143 130.389C37.6064 130.241 37.6017 130.124 37.5986 130.042C37.5971 130.001 37.5954 129.969 37.5947 129.946C37.5944 129.935 37.5939 129.926 37.5938 129.919V129.906C37.5945 129.906 37.6316 129.905 39.3594 129.864L37.5938 129.905C37.5785 129.252 37.9248 128.644 38.4941 128.324C39.0637 128.004 39.7639 128.025 40.3135 128.378C40.3139 128.378 40.3143 128.379 40.3154 128.38C40.3179 128.381 40.3223 128.384 40.3281 128.388C40.3399 128.395 40.3588 128.407 40.3838 128.423C40.4337 128.454 40.5095 128.501 40.6084 128.562C40.8068 128.685 41.0988 128.862 41.4648 129.077C42.1982 129.507 43.2233 130.085 44.3906 130.672C46.7977 131.883 49.5497 133.002 51.5781 133.165C53.601 133.328 56.4364 132.662 58.9443 131.85C60.1608 131.456 61.2362 131.049 62.0068 130.741C62.3913 130.587 62.6984 130.458 62.9072 130.369C63.0115 130.325 63.0911 130.29 63.1436 130.267C63.1555 130.261 63.1657 130.256 63.1748 130.252C63.188 130.245 63.2039 130.238 63.2217 130.229C63.2876 130.194 63.3855 130.143 63.5107 130.078C63.7611 129.948 64.1245 129.761 64.5781 129.528C65.4855 129.064 66.7556 128.419 68.209 127.704C71.1033 126.28 74.7689 124.547 77.7402 123.378C87.144 119.678 95.563 116.582 105.875 119.872C108.278 120.639 110.491 121.529 112.099 122.225C112.904 122.573 113.562 122.875 114.021 123.091C114.25 123.199 114.43 123.285 114.554 123.345C114.591 123.363 114.623 123.378 114.65 123.392L126.062 127.443C126.104 126.785 126.137 126.008 126.137 125.154C126.135 122.519 125.837 119.317 124.757 116.662C123.905 114.569 121.954 112.226 120.061 110.31C119.138 109.376 118.273 108.586 117.639 108.03C117.322 107.753 117.064 107.536 116.888 107.389C116.8 107.316 116.732 107.26 116.688 107.224C116.665 107.205 116.648 107.192 116.638 107.184C116.633 107.18 116.629 107.177 116.627 107.175L116.625 107.173C116.024 106.693 115.802 105.879 116.078 105.16C116.354 104.442 117.064 103.984 117.832 104.03Z" stroke="#5A421B" stroke-width="3.53143" stroke-linejoin="round"/>
</g>
<g filter="url(#filter31_g_757_17709)">
<path d="M51.1485 192.244C53.7891 190.419 59.9921 187.775 73.697 187.903C88.5202 188.043 94.0914 191.03 96.0724 192.742C96.8609 193.423 97.1812 194.43 97.2641 195.469C97.7168 201.141 97.5108 220.484 73.697 220.77C50.9615 221.042 49.1204 203.056 49.2193 196.376C49.2434 194.749 49.8097 193.169 51.1485 192.244Z" fill="#0D0D0D"/>
<path d="M159.345 192.243C156.704 190.418 150.501 187.774 136.796 187.902C121.973 188.042 116.402 191.029 114.421 192.741C113.632 193.422 113.312 194.429 113.229 195.468C112.776 201.14 112.982 220.483 136.796 220.769C159.532 221.041 161.373 203.055 161.274 196.375C161.25 194.748 160.683 193.168 159.345 192.243Z" fill="#0D0D0D"/>
<path d="M93.3428 199.867C93.3428 198.872 93.9984 197.995 94.9535 197.713L101.879 195.67C104.077 195.022 106.416 195.022 108.614 195.67L115.54 197.713C116.495 197.995 117.15 198.872 117.15 199.867C117.15 201.368 115.708 202.446 114.269 202.022L107.397 199.995C105.993 199.581 104.5 199.581 103.096 199.995L96.2244 202.022C94.7854 202.446 93.3428 201.368 93.3428 199.867Z" fill="#0D0D0D"/>
<rect x="57.8301" y="215.703" width="31.9529" height="4.09724" rx="2.04862" transform="rotate(-60 57.8301 215.703)" fill="#D9D9D9"/>
<rect x="55.0781" y="211.243" width="25.0295" height="1.9432" rx="0.971598" transform="rotate(-60 55.0781 211.243)" fill="#4B4B4B"/>
<rect x="123.577" y="216.548" width="31.9529" height="4.09724" rx="2.04862" transform="rotate(-60 123.577 216.548)" fill="#D9D9D9"/>
<rect x="120.825" y="212.087" width="25.0295" height="1.9432" rx="0.971598" transform="rotate(-60 120.825 212.087)" fill="#4B4B4B"/>
</g>
<path d="M15.2002 19.4526H199.2C206.38 19.4526 212.2 25.2729 212.2 32.4526V242.768C212.2 249.948 206.38 255.768 199.2 255.768H15.2002C8.02066 255.768 2.20046 249.948 2.2002 242.768V32.4526C2.2002 25.2729 8.02049 19.4526 15.2002 19.4526Z" stroke="#634120" stroke-width="2"/>
<path opacity="0.24" d="M212.964 242.768C212.964 250.5 206.696 256.768 198.964 256.768H14.9639C7.23188 256.768 0.963867 250.5 0.963867 242.768V32.4531C0.963867 24.7211 7.23188 18.4531 14.9639 18.4531H198.964C206.696 18.4531 212.964 24.7211 212.964 32.4531V242.768ZM25.4961 28.1104C15.5551 28.1104 7.49635 36.1685 7.49609 46.1094V231.765C7.49609 241.706 15.555 249.765 25.4961 249.765H188.432C198.373 249.765 206.432 241.706 206.432 231.765V46.1104C206.432 36.1692 198.373 28.1104 188.432 28.1104H25.4961Z" fill="#634120"/>
<g style="mix-blend-mode:plus-lighter" opacity="0.08">
<ellipse cx="107.2" cy="237.398" rx="89.047" ry="7.61279" fill="white"/>
</g>
<g style="mix-blend-mode:darken" opacity="0.08">
<ellipse cx="107.2" cy="36.293" rx="67.0732" ry="4.20068" fill="#634120"/>
</g>
</g>
</g>
<path d="M34.3522 61.9775C34.0002 61.5775 33.8242 61.0655 33.8242 60.4415C34.4002 60.4415 34.8242 60.3535 35.0962 60.1775C35.3842 60.0015 35.5282 59.6895 35.5282 59.2415V47.9615C35.5282 47.5135 35.3762 47.2015 35.0722 47.0255C34.7842 46.8335 34.3682 46.7375 33.8242 46.7375C33.8242 46.1455 34.0082 45.6415 34.3762 45.2255H38.1442C38.8322 45.2255 39.4082 45.3215 39.8722 45.5135C40.3522 45.7055 40.7362 46.1455 41.0242 46.8335L43.5682 53.0975L44.5282 56.0735L45.4402 53.0975L48.4642 45.2255H53.9362C54.3042 45.6415 54.4882 46.1455 54.4882 46.7375C53.9442 46.7375 53.5362 46.8335 53.2642 47.0255C53.0082 47.2015 52.8802 47.5135 52.8802 47.9615V59.2415C52.8802 59.6895 53.0002 60.0015 53.2402 60.1775C53.4962 60.3535 53.9122 60.4415 54.4882 60.4415C54.4882 61.0495 54.3042 61.5615 53.9362 61.9775H47.9842C47.8242 61.7855 47.6962 61.5535 47.6002 61.2815C47.5042 61.0095 47.4562 60.7295 47.4562 60.4415C48.0002 60.4415 48.4082 60.3535 48.6802 60.1775C48.9682 60.0015 49.1122 59.6895 49.1122 59.2415V49.3055L45.0322 59.6015C44.8242 60.1295 44.5202 60.4815 44.1202 60.6575C43.7362 60.8175 43.2722 60.8975 42.7282 60.8975L37.9762 49.3055V59.2415C37.9762 59.6895 38.1362 60.0015 38.4562 60.1775C38.7922 60.3535 39.2642 60.4415 39.8722 60.4415C39.8722 60.7295 39.8242 61.0095 39.7282 61.2815C39.6322 61.5535 39.5042 61.7855 39.3442 61.9775H34.3522ZM58.6033 67.0415C57.6113 67.0415 56.8673 66.8335 56.3713 66.4175C55.8753 66.0015 55.6273 65.5055 55.6273 64.9295C55.6273 64.5455 55.7153 64.2015 55.8913 63.8975C56.0833 63.5935 56.3233 63.3775 56.6113 63.2495C57.0433 63.7615 57.6833 64.0175 58.5313 64.0175C59.0113 64.0175 59.4993 63.7775 59.9953 63.2975C60.5073 62.8335 60.9313 62.0975 61.2673 61.0895H59.2993L55.6033 52.1135C55.4113 51.6495 55.2433 51.2975 55.0993 51.0575C54.9553 50.8175 54.6353 50.6975 54.1393 50.6975C54.1393 50.4255 54.1793 50.1615 54.2593 49.9055C54.3393 49.6495 54.4673 49.4255 54.6433 49.2335H60.3073C60.6913 49.6495 60.8833 50.1375 60.8833 50.6975C60.4833 50.6975 60.1953 50.8015 60.0193 51.0095C59.8593 51.2175 59.7793 51.4815 59.7793 51.8015C59.7793 51.9135 59.7873 52.0415 59.8033 52.1855C59.8193 52.3135 59.8513 52.4495 59.8993 52.5935L62.1313 59.0975L63.7153 52.2815C63.7633 52.0575 63.7873 51.8655 63.7873 51.7055C63.7873 51.0335 63.3953 50.6975 62.6113 50.6975C62.6113 50.4255 62.6433 50.1615 62.7073 49.9055C62.7713 49.6495 62.8913 49.4255 63.0673 49.2335H67.6993C67.8753 49.4255 67.9953 49.6495 68.0593 49.9055C68.1393 50.1615 68.1793 50.4255 68.1793 50.6975C67.7793 50.6975 67.4673 50.7935 67.2433 50.9855C67.0353 51.1775 66.8593 51.4975 66.7153 51.9455L63.9793 60.4655C63.2753 62.7375 62.5153 64.4015 61.6993 65.4575C60.8993 66.5135 59.8673 67.0415 58.6033 67.0415ZM73.127 62.2175C72.551 62.2175 71.967 62.1535 71.375 62.0255C70.799 61.8975 70.263 61.7135 69.767 61.4735C69.287 61.2335 68.895 60.9375 68.591 60.5855C68.287 60.2175 68.135 59.8015 68.135 59.3375C68.135 58.7775 68.295 58.3295 68.615 57.9935C68.935 57.6415 69.343 57.4655 69.839 57.4655C70.287 57.4655 70.663 57.6095 70.967 57.8975C71.287 58.1855 71.447 58.5615 71.447 59.0255C71.447 59.2335 71.415 59.4175 71.351 59.5775C71.287 59.7215 71.191 59.8815 71.063 60.0575C71.207 60.2015 71.463 60.3055 71.831 60.3695C72.199 60.4335 72.559 60.4655 72.911 60.4655C73.471 60.4655 73.903 60.3615 74.207 60.1535C74.511 59.9455 74.663 59.6895 74.663 59.3855C74.663 58.9055 74.407 58.4975 73.895 58.1615C73.383 57.8095 72.799 57.4575 72.143 57.1055C71.551 56.7855 70.959 56.4495 70.367 56.0975C69.791 55.7295 69.303 55.2735 68.903 54.7295C68.519 54.1855 68.327 53.4975 68.327 52.6655C68.327 51.6095 68.767 50.7375 69.647 50.0495C70.527 49.3615 71.775 49.0175 73.391 49.0175C74.511 49.0175 75.407 49.1615 76.079 49.4495C76.751 49.7215 77.239 50.0735 77.543 50.5055C77.847 50.9215 77.999 51.3615 77.999 51.8255C77.999 52.3215 77.839 52.7215 77.519 53.0255C77.215 53.3135 76.839 53.4575 76.391 53.4575C75.991 53.4575 75.639 53.3375 75.335 53.0975C75.031 52.8415 74.879 52.5135 74.879 52.1135C74.879 51.9215 74.911 51.7135 74.975 51.4895C75.039 51.2655 75.127 51.0815 75.239 50.9375C75.063 50.7935 74.855 50.6975 74.615 50.6495C74.391 50.5855 74.119 50.5535 73.799 50.5535C73.271 50.5535 72.863 50.6815 72.575 50.9375C72.303 51.1775 72.167 51.4735 72.167 51.8255C72.167 52.3695 72.423 52.8175 72.935 53.1695C73.463 53.5215 74.047 53.8655 74.687 54.2015C75.279 54.5055 75.855 54.8335 76.415 55.1855C76.991 55.5375 77.471 55.9775 77.855 56.5055C78.239 57.0335 78.431 57.7135 78.431 58.5455C78.431 59.4415 78.175 60.1615 77.663 60.7055C77.151 61.2335 76.487 61.6175 75.671 61.8575C74.871 62.0975 74.023 62.2175 73.127 62.2175ZM84.4456 62.1455C83.7736 62.1455 83.1576 62.0255 82.5976 61.7855C82.0376 61.5295 81.5816 61.0975 81.2296 60.4895C80.8936 59.8815 80.7256 59.0495 80.7256 57.9935V51.3935H79.2136V49.9295C79.6456 49.8655 80.0536 49.5935 80.4376 49.1135C80.8216 48.6335 81.1496 48.0415 81.4216 47.3375C81.7096 46.6335 81.8936 45.9295 81.9736 45.2255C82.2616 45.1775 82.5256 45.1535 82.7656 45.1535C83.4056 45.1535 83.8456 45.3375 84.0856 45.7055C84.3416 46.0735 84.4696 46.4175 84.4696 46.7375V49.2575H87.2536C87.2536 49.6415 87.2296 50.0255 87.1816 50.4095C87.1496 50.7775 87.0456 51.1055 86.8696 51.3935H84.5176V58.1615C84.5176 58.6735 84.6216 59.0175 84.8296 59.1935C85.0376 59.3535 85.3016 59.4335 85.6216 59.4335C85.9416 59.4335 86.2616 59.3535 86.5816 59.1935C86.9176 59.0175 87.1816 58.8175 87.3736 58.5935C87.5496 58.7375 87.6696 58.9535 87.7336 59.2415C87.7976 59.5135 87.8296 59.7215 87.8296 59.8655C87.8296 60.2175 87.7096 60.5695 87.4696 60.9215C87.2296 61.2735 86.8536 61.5695 86.3416 61.8095C85.8456 62.0335 85.2136 62.1455 84.4456 62.1455ZM94.2449 62.1935C92.4529 62.1935 91.0209 61.6255 89.9489 60.4895C88.8929 59.3535 88.3649 57.7695 88.3649 55.7375C88.3649 54.3455 88.6289 53.1455 89.1569 52.1375C89.6849 51.1135 90.3969 50.3295 91.2929 49.7855C92.2049 49.2415 93.2369 48.9695 94.3889 48.9695C95.8289 48.9695 96.9809 49.3935 97.8449 50.2415C98.7249 51.0735 99.1649 52.2495 99.1649 53.7695C99.1649 54.3775 99.0609 54.9135 98.8529 55.3775C98.6609 55.8255 98.2529 56.0495 97.6289 56.0495H92.4449C92.4929 57.3135 92.7809 58.2095 93.3089 58.7375C93.8529 59.2655 94.5569 59.5295 95.4209 59.5295C95.9649 59.5295 96.4689 59.4495 96.9329 59.2895C97.3969 59.1135 97.8289 58.8735 98.2289 58.5695C98.3729 58.6975 98.4849 58.8975 98.5649 59.1695C98.6609 59.4255 98.7089 59.6415 98.7089 59.8175C98.7089 60.0735 98.5249 60.3935 98.1569 60.7775C97.8049 61.1455 97.2929 61.4735 96.6209 61.7615C95.9649 62.0495 95.1729 62.1935 94.2449 62.1935ZM92.4449 54.2255H94.8689C95.1409 54.2255 95.3089 54.1215 95.3729 53.9135C95.4529 53.7055 95.4929 53.4495 95.4929 53.1455C95.4929 52.1215 95.3649 51.4495 95.1089 51.1295C94.8689 50.7935 94.5809 50.6255 94.2449 50.6255C93.9729 50.6255 93.7009 50.7295 93.4289 50.9375C93.1569 51.1455 92.9329 51.5135 92.7569 52.0415C92.5809 52.5535 92.4769 53.2815 92.4449 54.2255ZM100.986 61.9775C100.81 61.8015 100.674 61.6095 100.578 61.4015C100.482 61.1935 100.434 60.9535 100.434 60.6815C100.898 60.6815 101.226 60.5855 101.418 60.3935C101.626 60.1855 101.73 59.8415 101.73 59.3615V52.4255C101.73 52.0095 101.618 51.7135 101.394 51.5375C101.17 51.3455 100.754 51.2495 100.146 51.2495V50.1695C100.53 49.9455 100.986 49.7535 101.514 49.5935C102.042 49.4175 102.562 49.2815 103.074 49.1855C103.586 49.0735 103.986 49.0175 104.274 49.0175C104.642 49.0175 104.906 49.1455 105.066 49.4015C105.242 49.6575 105.33 50.2095 105.33 51.0575C105.506 50.7215 105.762 50.3935 106.098 50.0735C106.45 49.7375 106.842 49.4655 107.274 49.2575C107.706 49.0495 108.154 48.9455 108.618 48.9455C109.37 48.9455 109.906 49.1375 110.226 49.5215C110.546 49.9055 110.706 50.4015 110.706 51.0095C110.706 51.6975 110.53 52.2575 110.178 52.6895C109.826 53.1215 109.338 53.3375 108.714 53.3375C108.17 53.3375 107.738 53.1855 107.418 52.8815C107.098 52.5615 106.938 52.2015 106.938 51.8015C106.938 51.5455 106.962 51.3455 107.01 51.2015C106.754 51.2655 106.506 51.3535 106.266 51.4655C106.026 51.5615 105.786 51.7215 105.546 51.9455V59.1455C105.546 59.5135 105.602 59.8095 105.714 60.0335C105.826 60.2575 106.042 60.4255 106.362 60.5375C106.698 60.6335 107.194 60.6815 107.85 60.6815C107.85 60.9535 107.818 61.1935 107.754 61.4015C107.69 61.6095 107.57 61.8015 107.394 61.9775H100.986ZM115.228 67.0415C114.236 67.0415 113.492 66.8335 112.996 66.4175C112.5 66.0015 112.252 65.5055 112.252 64.9295C112.252 64.5455 112.34 64.2015 112.516 63.8975C112.708 63.5935 112.948 63.3775 113.236 63.2495C113.668 63.7615 114.308 64.0175 115.156 64.0175C115.636 64.0175 116.124 63.7775 116.62 63.2975C117.132 62.8335 117.556 62.0975 117.892 61.0895H115.924L112.228 52.1135C112.036 51.6495 111.868 51.2975 111.724 51.0575C111.58 50.8175 111.26 50.6975 110.764 50.6975C110.764 50.4255 110.804 50.1615 110.884 49.9055C110.964 49.6495 111.092 49.4255 111.268 49.2335H116.932C117.316 49.6495 117.508 50.1375 117.508 50.6975C117.108 50.6975 116.82 50.8015 116.644 51.0095C116.484 51.2175 116.404 51.4815 116.404 51.8015C116.404 51.9135 116.412 52.0415 116.428 52.1855C116.444 52.3135 116.476 52.4495 116.524 52.5935L118.756 59.0975L120.34 52.2815C120.388 52.0575 120.412 51.8655 120.412 51.7055C120.412 51.0335 120.02 50.6975 119.236 50.6975C119.236 50.4255 119.268 50.1615 119.332 49.9055C119.396 49.6495 119.516 49.4255 119.692 49.2335H124.324C124.5 49.4255 124.62 49.6495 124.684 49.9055C124.764 50.1615 124.804 50.4255 124.804 50.6975C124.404 50.6975 124.092 50.7935 123.868 50.9855C123.66 51.1775 123.484 51.4975 123.34 51.9455L120.604 60.4655C119.9 62.7375 119.14 64.4015 118.324 65.4575C117.524 66.5135 116.492 67.0415 115.228 67.0415ZM129.861 66.5375C129.685 66.3615 129.541 66.1695 129.429 65.9615C129.333 65.7535 129.285 65.5215 129.285 65.2655C129.765 65.2655 130.069 65.1615 130.197 64.9535C130.341 64.7455 130.413 64.4095 130.413 63.9455V52.4495C130.413 52.0335 130.293 51.7295 130.053 51.5375C129.829 51.3455 129.413 51.2495 128.805 51.2495V50.1695C129.157 49.9615 129.573 49.7695 130.053 49.5935C130.549 49.4175 131.029 49.2815 131.493 49.1855C131.957 49.0735 132.325 49.0175 132.597 49.0175C132.917 49.0175 133.181 49.0815 133.389 49.2095C133.613 49.3375 133.773 49.5935 133.869 49.9775C134.237 49.6255 134.669 49.3775 135.165 49.2335C135.677 49.0895 136.213 49.0175 136.773 49.0175C137.621 49.0175 138.413 49.2415 139.149 49.6895C139.885 50.1215 140.477 50.7775 140.925 51.6575C141.389 52.5375 141.621 53.6575 141.621 55.0175C141.621 56.5375 141.325 57.8415 140.733 58.9295C140.157 60.0015 139.373 60.8255 138.381 61.4015C137.405 61.9615 136.317 62.2415 135.117 62.2415C134.989 62.2415 134.845 62.2335 134.685 62.2175C134.525 62.2175 134.357 62.2095 134.181 62.1935V63.9455C134.181 64.4095 134.349 64.7455 134.685 64.9535C135.021 65.1615 135.365 65.2655 135.717 65.2655C135.717 65.7455 135.533 66.1695 135.165 66.5375H129.861ZM135.093 60.4895C135.749 60.4895 136.309 60.1055 136.773 59.3375C137.237 58.5695 137.469 57.3215 137.469 55.5935C137.469 54.4895 137.349 53.6175 137.109 52.9775C136.885 52.3215 136.573 51.8575 136.173 51.5855C135.773 51.2975 135.333 51.1535 134.853 51.1535C134.597 51.1535 134.373 51.2015 134.181 51.2975V60.2495C134.453 60.4095 134.757 60.4895 135.093 60.4895ZM146.862 62.1455C145.662 62.1455 144.686 61.8175 143.934 61.1615C143.198 60.4895 142.83 59.6335 142.83 58.5935C142.83 57.5535 143.166 56.7135 143.838 56.0735C144.526 55.4335 145.582 55.1135 147.006 55.1135C147.47 55.1135 147.958 55.1615 148.47 55.2575C148.982 55.3375 149.398 55.4655 149.718 55.6415V52.4495C149.718 51.7775 149.542 51.3135 149.19 51.0575C148.854 50.7855 148.438 50.6495 147.942 50.6495C147.414 50.6495 146.982 50.7775 146.646 51.0335C146.966 51.1455 147.198 51.3215 147.342 51.5615C147.486 51.7855 147.558 52.0335 147.558 52.3055C147.558 52.8335 147.366 53.2575 146.982 53.5775C146.614 53.8815 146.158 54.0335 145.614 54.0335C145.006 54.0335 144.518 53.8575 144.15 53.5055C143.782 53.1375 143.598 52.6815 143.598 52.1375C143.598 51.5935 143.782 51.0815 144.15 50.6015C144.518 50.1055 145.086 49.6975 145.854 49.3775C146.638 49.0575 147.646 48.8975 148.878 48.8975C152.094 48.8975 153.702 50.1695 153.702 52.7135V59.0735C153.702 59.8415 154.07 60.3055 154.806 60.4655V61.2335C154.598 61.5375 154.246 61.7695 153.75 61.9295C153.254 62.0735 152.774 62.1455 152.31 62.1455C151.222 62.1455 150.454 61.7695 150.006 61.0175C149.686 61.3055 149.262 61.5695 148.734 61.8095C148.206 62.0335 147.582 62.1455 146.862 62.1455ZM148.422 60.2015C148.646 60.2015 148.878 60.1695 149.118 60.1055C149.358 60.0255 149.558 59.9295 149.718 59.8175V57.4895C149.558 57.3775 149.35 57.2815 149.094 57.2015C148.854 57.1215 148.614 57.0815 148.374 57.0815C147.958 57.0815 147.598 57.2175 147.294 57.4895C146.99 57.7455 146.838 58.1535 146.838 58.7135C146.838 59.1455 146.982 59.5055 147.27 59.7935C147.558 60.0655 147.942 60.2015 148.422 60.2015ZM161.816 62.3375C160.648 62.3375 159.616 62.0735 158.72 61.5455C157.84 61.0175 157.144 60.2655 156.632 59.2895C156.136 58.2975 155.888 57.1135 155.888 55.7375C155.888 54.3135 156.16 53.0975 156.704 52.0895C157.248 51.0655 157.992 50.2895 158.936 49.7615C159.88 49.2175 160.944 48.9455 162.128 48.9455C163.36 48.9455 164.296 49.2415 164.936 49.8335C165.576 50.4095 165.896 51.1215 165.896 51.9695C165.896 52.7375 165.704 53.3295 165.32 53.7455C164.936 54.1615 164.44 54.3695 163.832 54.3695C163.336 54.3695 162.92 54.1855 162.584 53.8175C162.248 53.4495 162.08 53.0015 162.08 52.4735C162.08 52.0895 162.144 51.7775 162.272 51.5375C162.416 51.2975 162.592 51.0975 162.8 50.9375C162.64 50.8415 162.504 50.7855 162.392 50.7695C162.296 50.7375 162.2 50.7215 162.104 50.7215C161.8 50.7215 161.488 50.8415 161.168 51.0815C160.848 51.3215 160.576 51.7455 160.352 52.3535C160.144 52.9615 160.04 53.8095 160.04 54.8975C160.04 56.6575 160.296 57.8975 160.808 58.6175C161.32 59.3215 162.04 59.6735 162.968 59.6735C163.4 59.6735 163.832 59.6095 164.264 59.4815C164.712 59.3535 165.088 59.1695 165.392 58.9295C165.52 59.0895 165.624 59.2895 165.704 59.5295C165.8 59.7535 165.848 59.9535 165.848 60.1295C165.848 60.4655 165.664 60.8095 165.296 61.1615C164.944 61.4975 164.464 61.7775 163.856 62.0015C163.248 62.2255 162.568 62.3375 161.816 62.3375ZM178.017 62.2175C177.137 62.2175 176.433 62.0335 175.905 61.6655C175.377 61.2815 174.945 60.8015 174.609 60.2255C174.289 59.6495 174.001 59.0655 173.745 58.4735C173.489 57.8655 173.217 57.3135 172.929 56.8175C172.641 56.3215 172.265 55.9855 171.801 55.8095V59.4815C171.801 59.9455 171.897 60.2815 172.089 60.4895C172.297 60.6815 172.649 60.7775 173.145 60.7775C173.145 61.0335 173.089 61.2655 172.977 61.4735C172.881 61.6815 172.745 61.8735 172.569 62.0495H167.289C166.905 61.7135 166.713 61.2895 166.713 60.7775C167.193 60.7775 167.529 60.6815 167.721 60.4895C167.929 60.2815 168.033 59.9455 168.033 59.4815V46.4735C168.033 46.1055 167.929 45.8175 167.721 45.6095C167.513 45.3855 167.081 45.2735 166.425 45.2735V44.3135C166.825 44.1055 167.289 43.9135 167.817 43.7375C168.361 43.5615 168.897 43.4175 169.425 43.3055C169.953 43.1935 170.385 43.1375 170.721 43.1375C171.105 43.1375 171.377 43.2255 171.537 43.4015C171.713 43.5615 171.801 43.8495 171.801 44.2655V54.9455L174.441 52.2095C174.537 52.1135 174.633 52.0015 174.729 51.8735C174.841 51.7295 174.897 51.6015 174.897 51.4895C174.897 51.2655 174.721 51.0575 174.369 50.8655C174.033 50.6735 173.705 50.5775 173.385 50.5775C173.385 50.0015 173.569 49.5135 173.937 49.1135H179.337C179.529 49.3055 179.649 49.5295 179.697 49.7855C179.761 50.0415 179.793 50.3055 179.793 50.5775C179.361 50.5775 179.033 50.6495 178.809 50.7935C178.601 50.9215 178.409 51.0655 178.233 51.2255L174.585 54.8255C175.177 54.9215 175.673 55.1135 176.073 55.4015C176.473 55.6895 176.849 56.1455 177.201 56.7695C177.697 57.6495 178.081 58.3455 178.353 58.8575C178.641 59.3535 178.905 59.7295 179.145 59.9855C179.401 60.2415 179.737 60.4415 180.153 60.5855L180.177 61.1615C180.129 61.4975 179.905 61.7615 179.505 61.9535C179.105 62.1295 178.609 62.2175 178.017 62.2175Z" fill="#634120"/>
<rect x="33.2002" y="71.9775" width="148" height="1" fill="#634120"/>
<path d="M74.2322 87.9775H73.1242L76.3287 79.2503H77.4197L80.6242 87.9775H79.5162L76.9083 80.6309H76.8401L74.2322 87.9775ZM74.6412 84.5684H79.1072V85.5059H74.6412V84.5684ZM84.5063 88.1139C83.8927 88.1139 83.3643 87.969 82.9211 87.6792C82.4779 87.3895 82.137 86.9903 81.8983 86.4818C81.6597 85.9733 81.5404 85.3923 81.5404 84.7389C81.5404 84.0741 81.6626 83.4875 81.9069 82.979C82.154 82.4676 82.4978 82.0684 82.9381 81.7815C83.3813 81.4917 83.8983 81.3469 84.4893 81.3469C84.9495 81.3469 85.3643 81.4321 85.7336 81.6025C86.1029 81.773 86.4055 82.0116 86.6412 82.3184C86.877 82.6253 87.0233 82.9832 87.0802 83.3923H86.0745C85.9978 83.094 85.8273 82.8298 85.5631 82.5997C85.3018 82.3667 84.9495 82.2503 84.5063 82.2503C84.1143 82.2503 83.7705 82.3525 83.4751 82.5571C83.1824 82.7588 82.9537 83.0443 82.789 83.4136C82.627 83.7801 82.5461 84.2105 82.5461 84.7048C82.5461 85.2105 82.6256 85.6508 82.7847 86.0258C82.9466 86.4008 83.1739 86.692 83.4665 86.8994C83.762 87.1068 84.1086 87.2105 84.5063 87.2105C84.7677 87.2105 85.0049 87.165 85.218 87.0741C85.431 86.9832 85.6114 86.8525 85.7591 86.6821C85.9069 86.5116 86.012 86.3071 86.0745 86.0684H87.0802C87.0233 86.4548 86.8827 86.8028 86.6583 87.1125C86.4367 87.4193 86.1427 87.6636 85.7762 87.8454C85.4126 88.0244 84.9893 88.1139 84.5063 88.1139ZM91.2094 88.1139C90.5958 88.1139 90.0674 87.969 89.6242 87.6792C89.181 87.3895 88.8401 86.9903 88.6015 86.4818C88.3628 85.9733 88.2435 85.3923 88.2435 84.7389C88.2435 84.0741 88.3657 83.4875 88.61 82.979C88.8572 82.4676 89.2009 82.0684 89.6412 81.7815C90.0844 81.4917 90.6015 81.3469 91.1924 81.3469C91.6526 81.3469 92.0674 81.4321 92.4367 81.6025C92.806 81.773 93.1086 82.0116 93.3444 82.3184C93.5802 82.6253 93.7265 82.9832 93.7833 83.3923H92.7776C92.7009 83.094 92.5305 82.8298 92.2662 82.5997C92.0049 82.3667 91.6526 82.2503 91.2094 82.2503C90.8174 82.2503 90.4736 82.3525 90.1782 82.5571C89.8856 82.7588 89.6569 83.0443 89.4921 83.4136C89.3302 83.7801 89.2492 84.2105 89.2492 84.7048C89.2492 85.2105 89.3287 85.6508 89.4878 86.0258C89.6498 86.4008 89.877 86.692 90.1697 86.8994C90.4651 87.1068 90.8117 87.2105 91.2094 87.2105C91.4708 87.2105 91.708 87.165 91.9211 87.0741C92.1341 86.9832 92.3145 86.8525 92.4623 86.6821C92.61 86.5116 92.7151 86.3071 92.7776 86.0684H93.7833C93.7265 86.4548 93.5858 86.8028 93.3614 87.1125C93.1398 87.4193 92.8458 87.6636 92.4793 87.8454C92.1157 88.0244 91.6924 88.1139 91.2094 88.1139ZM97.9978 88.1139C97.3671 88.1139 96.8231 87.9747 96.3657 87.6963C95.9111 87.415 95.5603 87.023 95.3131 86.5202C95.0688 86.0145 94.9466 85.4264 94.9466 84.7559C94.9466 84.0855 95.0688 83.4946 95.3131 82.9832C95.5603 82.469 95.904 82.0684 96.3444 81.7815C96.7876 81.4917 97.3046 81.3469 97.8955 81.3469C98.2364 81.3469 98.5731 81.4037 98.9055 81.5173C99.2378 81.6309 99.5404 81.8156 99.8131 82.0713C100.086 82.3241 100.303 82.6594 100.465 83.077C100.627 83.4946 100.708 84.0088 100.708 84.6196V85.0457H95.6626V84.1764H99.6853C99.6853 83.8071 99.6114 83.4775 99.4637 83.1878C99.3188 82.898 99.1114 82.6693 98.8415 82.5017C98.5745 82.3341 98.2591 82.2503 97.8955 82.2503C97.4949 82.2503 97.1483 82.3497 96.8557 82.5486C96.566 82.7446 96.343 83.0003 96.1867 83.3156C96.0305 83.6309 95.9523 83.969 95.9523 84.3298V84.9094C95.9523 85.4037 96.0376 85.8227 96.208 86.1665C96.3813 86.5074 96.6214 86.7673 96.9282 86.9463C97.235 87.1224 97.5915 87.2105 97.9978 87.2105C98.262 87.2105 98.5006 87.1736 98.7137 87.0997C98.9296 87.023 99.1157 86.9094 99.2719 86.7588C99.4282 86.6054 99.5489 86.415 99.6341 86.1878L100.606 86.4605C100.503 86.79 100.332 87.0798 100.09 87.3298C99.8486 87.577 99.5503 87.7702 99.1952 87.9094C98.8401 88.0457 98.441 88.1139 97.9978 88.1139ZM106.874 82.898L105.971 83.1537C105.914 83.0031 105.83 82.8568 105.719 82.7148C105.611 82.5699 105.464 82.4506 105.276 82.3568C105.089 82.2631 104.849 82.2162 104.556 82.2162C104.155 82.2162 103.822 82.3085 103.555 82.4932C103.29 82.675 103.158 82.9065 103.158 83.1878C103.158 83.4378 103.249 83.6352 103.431 83.7801C103.613 83.925 103.897 84.0457 104.283 84.1423L105.255 84.3809C105.84 84.523 106.276 84.7403 106.563 85.0329C106.85 85.3227 106.994 85.6963 106.994 86.1537C106.994 86.5287 106.886 86.8639 106.67 87.1594C106.457 87.4548 106.158 87.6878 105.775 87.8582C105.391 88.0287 104.945 88.1139 104.437 88.1139C103.769 88.1139 103.217 87.969 102.779 87.6792C102.342 87.3895 102.065 86.9662 101.948 86.4094L102.903 86.1707C102.994 86.523 103.165 86.7872 103.418 86.9633C103.674 87.1395 104.008 87.2275 104.42 87.2275C104.888 87.2275 105.261 87.1281 105.536 86.9292C105.815 86.7275 105.954 86.4861 105.954 86.2048C105.954 85.9775 105.874 85.7872 105.715 85.6338C105.556 85.4775 105.312 85.3611 104.982 85.2844L103.891 85.0287C103.292 84.8866 102.851 84.6665 102.57 84.3682C102.292 84.067 102.153 83.6906 102.153 83.2389C102.153 82.8696 102.256 82.5429 102.464 82.2588C102.674 81.9747 102.959 81.7517 103.32 81.5898C103.684 81.4278 104.096 81.3469 104.556 81.3469C105.204 81.3469 105.712 81.4889 106.082 81.773C106.454 82.0571 106.718 82.4321 106.874 82.898ZM113.144 82.898L112.24 83.1537C112.184 83.0031 112.1 82.8568 111.989 82.7148C111.881 82.5699 111.733 82.4506 111.546 82.3568C111.358 82.2631 111.118 82.2162 110.826 82.2162C110.425 82.2162 110.091 82.3085 109.824 82.4932C109.56 82.675 109.428 82.9065 109.428 83.1878C109.428 83.4378 109.519 83.6352 109.701 83.7801C109.882 83.925 110.166 84.0457 110.553 84.1423L111.524 84.3809C112.11 84.523 112.546 84.7403 112.833 85.0329C113.12 85.3227 113.263 85.6963 113.263 86.1537C113.263 86.5287 113.155 86.8639 112.939 87.1594C112.726 87.4548 112.428 87.6878 112.044 87.8582C111.661 88.0287 111.215 88.1139 110.706 88.1139C110.039 88.1139 109.486 87.969 109.049 87.6792C108.611 87.3895 108.334 86.9662 108.218 86.4094L109.172 86.1707C109.263 86.523 109.435 86.7872 109.688 86.9633C109.943 87.1395 110.277 87.2275 110.689 87.2275C111.158 87.2275 111.53 87.1281 111.806 86.9292C112.084 86.7275 112.223 86.4861 112.223 86.2048C112.223 85.9775 112.144 85.7872 111.985 85.6338C111.826 85.4775 111.581 85.3611 111.252 85.2844L110.161 85.0287C109.561 84.8866 109.121 84.6665 108.84 84.3682C108.561 84.067 108.422 83.6906 108.422 83.2389C108.422 82.8696 108.526 82.5429 108.733 82.2588C108.943 81.9747 109.229 81.7517 109.59 81.5898C109.953 81.4278 110.365 81.3469 110.826 81.3469C111.473 81.3469 111.982 81.4889 112.351 81.773C112.723 82.0571 112.987 82.4321 113.144 82.898ZM117.436 88.1139C116.845 88.1139 116.327 87.9733 115.881 87.692C115.437 87.4108 115.091 87.0173 114.841 86.5116C114.594 86.0059 114.47 85.415 114.47 84.7389C114.47 84.0571 114.594 83.4619 114.841 82.9534C115.091 82.4449 115.437 82.05 115.881 81.7687C116.327 81.4875 116.845 81.3469 117.436 81.3469C118.027 81.3469 118.544 81.4875 118.987 81.7687C119.433 82.05 119.78 82.4449 120.027 82.9534C120.277 83.4619 120.402 84.0571 120.402 84.7389C120.402 85.415 120.277 86.0059 120.027 86.5116C119.78 87.0173 119.433 87.4108 118.987 87.692C118.544 87.9733 118.027 88.1139 117.436 88.1139ZM117.436 87.2105C117.885 87.2105 118.254 87.0954 118.544 86.8653C118.834 86.6352 119.048 86.3327 119.187 85.9577C119.327 85.5827 119.396 85.1764 119.396 84.7389C119.396 84.3014 119.327 83.8937 119.187 83.5159C119.048 83.1381 118.834 82.8327 118.544 82.5997C118.254 82.3667 117.885 82.2503 117.436 82.2503C116.987 82.2503 116.618 82.3667 116.328 82.5997C116.038 82.8327 115.824 83.1381 115.685 83.5159C115.545 83.8937 115.476 84.3014 115.476 84.7389C115.476 85.1764 115.545 85.5827 115.685 85.9577C115.824 86.3327 116.038 86.6352 116.328 86.8653C116.618 87.0954 116.987 87.2105 117.436 87.2105ZM121.937 87.9775V81.4321H122.909V82.4207H122.977C123.096 82.0969 123.312 81.8341 123.625 81.6324C123.937 81.4307 124.289 81.3298 124.681 81.3298C124.755 81.3298 124.848 81.3312 124.958 81.3341C125.069 81.3369 125.153 81.3412 125.21 81.3469V82.3696C125.176 82.3611 125.098 82.3483 124.975 82.3312C124.856 82.3113 124.73 82.3014 124.596 82.3014C124.278 82.3014 123.994 82.3682 123.744 82.5017C123.497 82.6324 123.301 82.8142 123.156 83.0471C123.014 83.2773 122.943 83.54 122.943 83.8355V87.9775H121.937ZM126.402 87.9775V81.4321H127.408V87.9775H126.402ZM126.913 80.3412C126.717 80.3412 126.548 80.2744 126.406 80.1409C126.267 80.0074 126.197 79.8469 126.197 79.6594C126.197 79.4719 126.267 79.3113 126.406 79.1778C126.548 79.0443 126.717 78.9775 126.913 78.9775C127.109 78.9775 127.277 79.0443 127.416 79.1778C127.558 79.3113 127.629 79.4719 127.629 79.6594C127.629 79.8469 127.558 80.0074 127.416 80.1409C127.277 80.2744 127.109 80.3412 126.913 80.3412ZM131.994 88.1139C131.363 88.1139 130.819 87.9747 130.362 87.6963C129.907 87.415 129.556 87.023 129.309 86.5202C129.065 86.0145 128.943 85.4264 128.943 84.7559C128.943 84.0855 129.065 83.4946 129.309 82.9832C129.556 82.469 129.9 82.0684 130.34 81.7815C130.784 81.4917 131.301 81.3469 131.892 81.3469C132.233 81.3469 132.569 81.4037 132.902 81.5173C133.234 81.6309 133.536 81.8156 133.809 82.0713C134.082 82.3241 134.299 82.6594 134.461 83.077C134.623 83.4946 134.704 84.0088 134.704 84.6196V85.0457H129.659V84.1764H133.681C133.681 83.8071 133.608 83.4775 133.46 83.1878C133.315 82.898 133.108 82.6693 132.838 82.5017C132.571 82.3341 132.255 82.2503 131.892 82.2503C131.491 82.2503 131.144 82.3497 130.852 82.5486C130.562 82.7446 130.339 83.0003 130.183 83.3156C130.027 83.6309 129.948 83.969 129.948 84.3298V84.9094C129.948 85.4037 130.034 85.8227 130.204 86.1665C130.377 86.5074 130.617 86.7673 130.924 86.9463C131.231 87.1224 131.588 87.2105 131.994 87.2105C132.258 87.2105 132.497 87.1736 132.71 87.0997C132.926 87.023 133.112 86.9094 133.268 86.7588C133.424 86.6054 133.545 86.415 133.63 86.1878L134.602 86.4605C134.5 86.79 134.328 87.0798 134.086 87.3298C133.845 87.577 133.546 87.7702 133.191 87.9094C132.836 88.0457 132.437 88.1139 131.994 88.1139ZM140.87 82.898L139.967 83.1537C139.91 83.0031 139.826 82.8568 139.715 82.7148C139.608 82.5699 139.46 82.4506 139.272 82.3568C139.085 82.2631 138.845 82.2162 138.552 82.2162C138.152 82.2162 137.818 82.3085 137.551 82.4932C137.286 82.675 137.154 82.9065 137.154 83.1878C137.154 83.4378 137.245 83.6352 137.427 83.7801C137.609 83.925 137.893 84.0457 138.279 84.1423L139.251 84.3809C139.836 84.523 140.272 84.7403 140.559 85.0329C140.846 85.3227 140.99 85.6963 140.99 86.1537C140.99 86.5287 140.882 86.8639 140.666 87.1594C140.453 87.4548 140.154 87.6878 139.771 87.8582C139.387 88.0287 138.941 88.1139 138.433 88.1139C137.765 88.1139 137.213 87.969 136.775 87.6792C136.338 87.3895 136.061 86.9662 135.944 86.4094L136.899 86.1707C136.99 86.523 137.161 86.7872 137.414 86.9633C137.67 87.1395 138.004 87.2275 138.416 87.2275C138.884 87.2275 139.257 87.1281 139.532 86.9292C139.811 86.7275 139.95 86.4861 139.95 86.2048C139.95 85.9775 139.87 85.7872 139.711 85.6338C139.552 85.4775 139.308 85.3611 138.978 85.2844L137.887 85.0287C137.288 84.8866 136.848 84.6665 136.566 84.3682C136.288 84.067 136.149 83.6906 136.149 83.2389C136.149 82.8696 136.252 82.5429 136.46 82.2588C136.67 81.9747 136.956 81.7517 137.316 81.5898C137.68 81.4278 138.092 81.3469 138.552 81.3469C139.2 81.3469 139.708 81.4889 140.078 81.773C140.45 82.0571 140.714 82.4321 140.87 82.898Z" fill="#634120"/>
<g filter="url(#filter32_g_757_17709)">
<path d="M4.85254 7.2002C4.85254 3.88649 7.53883 1.2002 10.8525 1.2002H203.098C206.412 1.2002 209.098 3.88649 209.098 7.20019V23.1069H4.85254V7.2002Z" fill="#634120"/>
</g>
<defs>
<filter id="filter0_g_757_17709" x="0.000195265" y="17.2526" width="214.4" height="240.715" filterUnits="userSpaceOnUse" color-interpolation-filters="sRGB">
<feFlood flood-opacity="0" result="BackgroundImageFix"/>
<feBlend mode="normal" in="SourceGraphic" in2="BackgroundImageFix" result="shape"/>
<feTurbulence type="fractalNoise" baseFrequency="0.28571429848670959 0.28571429848670959" numOctaves="3" seed="8608" />
<feDisplacementMap in="shape" scale="2.4000000953674316" xChannelSelector="R" yChannelSelector="G" result="displacedImage" width="100%" height="100%" />
<feMerge result="effect1_texture_757_17709">
<feMergeNode in="displacedImage"/>
</feMerge>
</filter>
<filter id="filter1_g_757_17709" x="29.8321" y="136.58" width="152.499" height="184.485" filterUnits="userSpaceOnUse" color-interpolation-filters="sRGB">
<feFlood flood-opacity="0" result="BackgroundImageFix"/>
<feBlend mode="normal" in="SourceGraphic" in2="BackgroundImageFix" result="shape"/>
<feTurbulence type="fractalNoise" baseFrequency="4.5055065155029297 4.5055065155029297" numOctaves="3" seed="9146" />
<feDisplacementMap in="shape" scale="0.17756049335002899" xChannelSelector="R" yChannelSelector="G" result="displacedImage" width="100%" height="100%" />
<feMerge result="effect1_texture_757_17709">
<feMergeNode in="displacedImage"/>
</feMerge>
</filter>
<filter id="filter2_g_757_17709" x="69.2631" y="200.928" width="34.2141" height="43.3176" filterUnits="userSpaceOnUse" color-interpolation-filters="sRGB">
<feFlood flood-opacity="0" result="BackgroundImageFix"/>
<feBlend mode="normal" in="SourceGraphic" in2="BackgroundImageFix" result="shape"/>
<feTurbulence type="fractalNoise" baseFrequency="1 1" numOctaves="3" seed="9146" />
<feDisplacementMap in="shape" scale="0.80000001192092896" xChannelSelector="R" yChannelSelector="G" result="displacedImage" width="100%" height="100%" />
<feMerge result="effect1_texture_757_17709">
<feMergeNode in="displacedImage"/>
</feMerge>
</filter>
<filter id="filter3_g_757_17709" x="64.726" y="231.94" width="20.4182" height="26.5422" filterUnits="userSpaceOnUse" color-interpolation-filters="sRGB">
<feFlood flood-opacity="0" result="BackgroundImageFix"/>
<feBlend mode="normal" in="SourceGraphic" in2="BackgroundImageFix" result="shape"/>
<feTurbulence type="fractalNoise" baseFrequency="1 1" numOctaves="3" seed="9146" />
<feDisplacementMap in="shape" scale="0.80000001192092896" xChannelSelector="R" yChannelSelector="G" result="displacedImage" width="100%" height="100%" />
<feMerge result="effect1_texture_757_17709">
<feMergeNode in="displacedImage"/>
</feMerge>
</filter>
<filter id="filter4_g_757_17709" x="107.245" y="200.931" width="34.2141" height="43.3176" filterUnits="userSpaceOnUse" color-interpolation-filters="sRGB">
<feFlood flood-opacity="0" result="BackgroundImageFix"/>
<feBlend mode="normal" in="SourceGraphic" in2="BackgroundImageFix" result="shape"/>
<feTurbulence type="fractalNoise" baseFrequency="1 1" numOctaves="3" seed="9146" />
<feDisplacementMap in="shape" scale="0.80000001192092896" xChannelSelector="R" yChannelSelector="G" result="displacedImage" width="100%" height="100%" />
<feMerge result="effect1_texture_757_17709">
<feMergeNode in="displacedImage"/>
</feMerge>
</filter>
<filter id="filter5_g_757_17709" x="125.577" y="231.943" width="20.4182" height="26.5417" filterUnits="userSpaceOnUse" color-interpolation-filters="sRGB">
<feFlood flood-opacity="0" result="BackgroundImageFix"/>
<feBlend mode="normal" in="SourceGraphic" in2="BackgroundImageFix" result="shape"/>
<feTurbulence type="fractalNoise" baseFrequency="1 1" numOctaves="3" seed="9146" />
<feDisplacementMap in="shape" scale="0.80000001192092896" xChannelSelector="R" yChannelSelector="G" result="displacedImage" width="100%" height="100%" />
<feMerge result="effect1_texture_757_17709">
<feMergeNode in="displacedImage"/>
</feMerge>
</filter>
<filter id="filter6_g_757_17709" x="29.5209" y="189.359" width="27.2951" height="27.2951" filterUnits="userSpaceOnUse" color-interpolation-filters="sRGB">
<feFlood flood-opacity="0" result="BackgroundImageFix"/>
<feBlend mode="normal" in="SourceGraphic" in2="BackgroundImageFix" result="shape"/>
<feTurbulence type="fractalNoise" baseFrequency="1 1" numOctaves="3" seed="9146" />
<feDisplacementMap in="shape" scale="0.80000001192092896" xChannelSelector="R" yChannelSelector="G" result="displacedImage" width="100%" height="100%" />
<feMerge result="effect1_texture_757_17709">
<feMergeNode in="displacedImage"/>
</feMerge>
</filter>
<filter id="filter7_g_757_17709" x="35.5219" y="190.58" width="24.8547" height="24.8542" filterUnits="userSpaceOnUse" color-interpolation-filters="sRGB">
<feFlood flood-opacity="0" result="BackgroundImageFix"/>
<feBlend mode="normal" in="SourceGraphic" in2="BackgroundImageFix" result="shape"/>
<feTurbulence type="fractalNoise" baseFrequency="1 1" numOctaves="3" seed="9146" />
<feDisplacementMap in="shape" scale="0.80000001192092896" xChannelSelector="R" yChannelSelector="G" result="displacedImage" width="100%" height="100%" />
<feMerge result="effect1_texture_757_17709">
<feMergeNode in="displacedImage"/>
</feMerge>
</filter>
<filter id="filter8_g_757_17709" x="155.347" y="189.359" width="27.2951" height="27.2951" filterUnits="userSpaceOnUse" color-interpolation-filters="sRGB">
<feFlood flood-opacity="0" result="BackgroundImageFix"/>
<feBlend mode="normal" in="SourceGraphic" in2="BackgroundImageFix" result="shape"/>
<feTurbulence type="fractalNoise" baseFrequency="1 1" numOctaves="3" seed="9146" />
<feDisplacementMap in="shape" scale="0.80000001192092896" xChannelSelector="R" yChannelSelector="G" result="displacedImage" width="100%" height="100%" />
<feMerge result="effect1_texture_757_17709">
<feMergeNode in="displacedImage"/>
</feMerge>
</filter>
<filter id="filter9_g_757_17709" x="151.787" y="190.58" width="24.8547" height="24.8542" filterUnits="userSpaceOnUse" color-interpolation-filters="sRGB">
<feFlood flood-opacity="0" result="BackgroundImageFix"/>
<feBlend mode="normal" in="SourceGraphic" in2="BackgroundImageFix" result="shape"/>
<feTurbulence type="fractalNoise" baseFrequency="1 1" numOctaves="3" seed="9146" />
<feDisplacementMap in="shape" scale="0.80000001192092896" xChannelSelector="R" yChannelSelector="G" result="displacedImage" width="100%" height="100%" />
<feMerge result="effect1_texture_757_17709">
<feMergeNode in="displacedImage"/>
</feMerge>
</filter>
<filter id="filter10_g_757_17709" x="56.8549" y="140.645" width="97.9846" height="113.077" filterUnits="userSpaceOnUse" color-interpolation-filters="sRGB">
<feFlood flood-opacity="0" result="BackgroundImageFix"/>
<feBlend mode="normal" in="SourceGraphic" in2="BackgroundImageFix" result="shape"/>
<feTurbulence type="fractalNoise" baseFrequency="1 1" numOctaves="3" seed="9146" />
<feDisplacementMap in="shape" scale="0.80000001192092896" xChannelSelector="R" yChannelSelector="G" result="displacedImage" width="100%" height="100%" />
<feMerge result="effect1_texture_757_17709">
<feMergeNode in="displacedImage"/>
</feMerge>
</filter>
<filter id="filter11_g_757_17709" x="70.3637" y="234.787" width="70.9484" height="83.968" filterUnits="userSpaceOnUse" color-interpolation-filters="sRGB">
<feFlood flood-opacity="0" result="BackgroundImageFix"/>
<feBlend mode="normal" in="SourceGraphic" in2="BackgroundImageFix" result="shape"/>
<feTurbulence type="fractalNoise" baseFrequency="1 1" numOctaves="3" seed="9146" />
<feDisplacementMap in="shape" scale="0.80000001192092896" xChannelSelector="R" yChannelSelector="G" result="displacedImage" width="100%" height="100%" />
<feMerge result="effect1_texture_757_17709">
<feMergeNode in="displacedImage"/>
</feMerge>
</filter>
<filter id="filter12_g_757_17709" x="39.4262" y="208.194" width="29.051" height="29.0515" filterUnits="userSpaceOnUse" color-interpolation-filters="sRGB">
<feFlood flood-opacity="0" result="BackgroundImageFix"/>
<feBlend mode="normal" in="SourceGraphic" in2="BackgroundImageFix" result="shape"/>
<feTurbulence type="fractalNoise" baseFrequency="1 1" numOctaves="3" seed="9146" />
<feDisplacementMap in="shape" scale="0.80000001192092896" xChannelSelector="R" yChannelSelector="G" result="displacedImage" width="100%" height="100%" />
<feMerge result="effect1_texture_757_17709">
<feMergeNode in="displacedImage"/>
</feMerge>
</filter>
<filter id="filter13_g_757_17709" x="142.168" y="208.194" width="29.051" height="29.0515" filterUnits="userSpaceOnUse" color-interpolation-filters="sRGB">
<feFlood flood-opacity="0" result="BackgroundImageFix"/>
<feBlend mode="normal" in="SourceGraphic" in2="BackgroundImageFix" result="shape"/>
<feTurbulence type="fractalNoise" baseFrequency="1 1" numOctaves="3" seed="9146" />
<feDisplacementMap in="shape" scale="0.80000001192092896" xChannelSelector="R" yChannelSelector="G" result="displacedImage" width="100%" height="100%" />
<feMerge result="effect1_texture_757_17709">
<feMergeNode in="displacedImage"/>
</feMerge>
</filter>
<filter id="filter14_g_757_17709" x="54.5687" y="194.148" width="37.2902" height="20.4055" filterUnits="userSpaceOnUse" color-interpolation-filters="sRGB">
<feFlood flood-opacity="0" result="BackgroundImageFix"/>
<feBlend mode="normal" in="SourceGraphic" in2="BackgroundImageFix" result="shape"/>
<feTurbulence type="fractalNoise" baseFrequency="1 1" numOctaves="3" seed="9146" />
<feDisplacementMap in="shape" scale="0.80000001192092896" xChannelSelector="R" yChannelSelector="G" result="displacedImage" width="100%" height="100%" />
<feMerge result="effect1_texture_757_17709">
<feMergeNode in="displacedImage"/>
</feMerge>
</filter>
<filter id="filter15_g_757_17709" x="60.5072" y="190.035" width="25.4133" height="26.4978" filterUnits="userSpaceOnUse" color-interpolation-filters="sRGB">
<feFlood flood-opacity="0" result="BackgroundImageFix"/>
<feBlend mode="normal" in="SourceGraphic" in2="BackgroundImageFix" result="shape"/>
<feTurbulence type="fractalNoise" baseFrequency="1 1" numOctaves="3" seed="9146" />
<feDisplacementMap in="shape" scale="0.80000001192092896" xChannelSelector="R" yChannelSelector="G" result="displacedImage" width="100%" height="100%" />
<feMerge result="effect1_texture_757_17709">
<feMergeNode in="displacedImage"/>
</feMerge>
</filter>
<filter id="filter16_g_757_17709" x="62.101" y="195.621" width="6.92109" height="7.19111" filterUnits="userSpaceOnUse" color-interpolation-filters="sRGB">
<feFlood flood-opacity="0" result="BackgroundImageFix"/>
<feBlend mode="normal" in="SourceGraphic" in2="BackgroundImageFix" result="shape"/>
<feTurbulence type="fractalNoise" baseFrequency="1 1" numOctaves="3" seed="9146" />
<feDisplacementMap in="shape" scale="0.80000001192092896" xChannelSelector="R" yChannelSelector="G" result="displacedImage" width="100%" height="100%" />
<feMerge result="effect1_texture_757_17709">
<feMergeNode in="displacedImage"/>
</feMerge>
</filter>
<filter id="filter17_g_757_17709" x="52.8031" y="190.817" width="40.8332" height="14.3718" filterUnits="userSpaceOnUse" color-interpolation-filters="sRGB">
<feFlood flood-opacity="0" result="BackgroundImageFix"/>
<feBlend mode="normal" in="SourceGraphic" in2="BackgroundImageFix" result="shape"/>
<feTurbulence type="fractalNoise" baseFrequency="1 1" numOctaves="3" seed="9146" />
<feDisplacementMap in="shape" scale="0.80000001192092896" xChannelSelector="R" yChannelSelector="G" result="displacedImage" width="100%" height="100%" />
<feMerge result="effect1_texture_757_17709">
<feMergeNode in="displacedImage"/>
</feMerge>
</filter>
<filter id="filter18_g_757_17709" x="53.4271" y="205.607" width="4.52949" height="4.26826" filterUnits="userSpaceOnUse" color-interpolation-filters="sRGB">
<feFlood flood-opacity="0" result="BackgroundImageFix"/>
<feBlend mode="normal" in="SourceGraphic" in2="BackgroundImageFix" result="shape"/>
<feTurbulence type="fractalNoise" baseFrequency="1 1" numOctaves="3" seed="9146" />
<feDisplacementMap in="shape" scale="0.80000001192092896" xChannelSelector="R" yChannelSelector="G" result="displacedImage" width="100%" height="100%" />
<feMerge result="effect1_texture_757_17709">
<feMergeNode in="displacedImage"/>
</feMerge>
</filter>
<filter id="filter19_g_757_17709" x="57.1439" y="209.517" width="4.19063" height="3.41377" filterUnits="userSpaceOnUse" color-interpolation-filters="sRGB">
<feFlood flood-opacity="0" result="BackgroundImageFix"/>
<feBlend mode="normal" in="SourceGraphic" in2="BackgroundImageFix" result="shape"/>
<feTurbulence type="fractalNoise" baseFrequency="1 1" numOctaves="3" seed="9146" />
<feDisplacementMap in="shape" scale="0.80000001192092896" xChannelSelector="R" yChannelSelector="G" result="displacedImage" width="100%" height="100%" />
<feMerge result="effect1_texture_757_17709">
<feMergeNode in="displacedImage"/>
</feMerge>
</filter>
<filter id="filter20_g_757_17709" x="117.952" y="194.148" width="37.2902" height="20.4055" filterUnits="userSpaceOnUse" color-interpolation-filters="sRGB">
<feFlood flood-opacity="0" result="BackgroundImageFix"/>
<feBlend mode="normal" in="SourceGraphic" in2="BackgroundImageFix" result="shape"/>
<feTurbulence type="fractalNoise" baseFrequency="1 1" numOctaves="3" seed="9146" />
<feDisplacementMap in="shape" scale="0.80000001192092896" xChannelSelector="R" yChannelSelector="G" result="displacedImage" width="100%" height="100%" />
<feMerge result="effect1_texture_757_17709">
<feMergeNode in="displacedImage"/>
</feMerge>
</filter>
<filter id="filter21_g_757_17709" x="123.89" y="190.035" width="25.4133" height="26.4978" filterUnits="userSpaceOnUse" color-interpolation-filters="sRGB">
<feFlood flood-opacity="0" result="BackgroundImageFix"/>
<feBlend mode="normal" in="SourceGraphic" in2="BackgroundImageFix" result="shape"/>
<feTurbulence type="fractalNoise" baseFrequency="1 1" numOctaves="3" seed="9146" />
<feDisplacementMap in="shape" scale="0.80000001192092896" xChannelSelector="R" yChannelSelector="G" result="displacedImage" width="100%" height="100%" />
<feMerge result="effect1_texture_757_17709">
<feMergeNode in="displacedImage"/>
</feMerge>
</filter>
<filter id="filter22_g_757_17709" x="123.367" y="195.621" width="6.92109" height="7.19111" filterUnits="userSpaceOnUse" color-interpolation-filters="sRGB">
<feFlood flood-opacity="0" result="BackgroundImageFix"/>
<feBlend mode="normal" in="SourceGraphic" in2="BackgroundImageFix" result="shape"/>
<feTurbulence type="fractalNoise" baseFrequency="1 1" numOctaves="3" seed="9146" />
<feDisplacementMap in="shape" scale="0.80000001192092896" xChannelSelector="R" yChannelSelector="G" result="displacedImage" width="100%" height="100%" />
<feMerge result="effect1_texture_757_17709">
<feMergeNode in="displacedImage"/>
</feMerge>
</filter>
<filter id="filter23_g_757_17709" x="116.174" y="190.817" width="40.8332" height="14.3718" filterUnits="userSpaceOnUse" color-interpolation-filters="sRGB">
<feFlood flood-opacity="0" result="BackgroundImageFix"/>
<feBlend mode="normal" in="SourceGraphic" in2="BackgroundImageFix" result="shape"/>
<feTurbulence type="fractalNoise" baseFrequency="1 1" numOctaves="3" seed="9146" />
<feDisplacementMap in="shape" scale="0.80000001192092896" xChannelSelector="R" yChannelSelector="G" result="displacedImage" width="100%" height="100%" />
<feMerge result="effect1_texture_757_17709">
<feMergeNode in="displacedImage"/>
</feMerge>
</filter>
<filter id="filter24_g_757_17709" x="151.854" y="205.607" width="4.52949" height="4.26826" filterUnits="userSpaceOnUse" color-interpolation-filters="sRGB">
<feFlood flood-opacity="0" result="BackgroundImageFix"/>
<feBlend mode="normal" in="SourceGraphic" in2="BackgroundImageFix" result="shape"/>
<feTurbulence type="fractalNoise" baseFrequency="1 1" numOctaves="3" seed="9146" />
<feDisplacementMap in="shape" scale="0.80000001192092896" xChannelSelector="R" yChannelSelector="G" result="displacedImage" width="100%" height="100%" />
<feMerge result="effect1_texture_757_17709">
<feMergeNode in="displacedImage"/>
</feMerge>
</filter>
<filter id="filter25_g_757_17709" x="148.476" y="209.517" width="4.19063" height="3.41377" filterUnits="userSpaceOnUse" color-interpolation-filters="sRGB">
<feFlood flood-opacity="0" result="BackgroundImageFix"/>
<feBlend mode="normal" in="SourceGraphic" in2="BackgroundImageFix" result="shape"/>
<feTurbulence type="fractalNoise" baseFrequency="1 1" numOctaves="3" seed="9146" />
<feDisplacementMap in="shape" scale="0.80000001192092896" xChannelSelector="R" yChannelSelector="G" result="displacedImage" width="100%" height="100%" />
<feMerge result="effect1_texture_757_17709">
<feMergeNode in="displacedImage"/>
</feMerge>
</filter>
<filter id="filter26_g_757_17709" x="102.736" y="214.865" width="14.1828" height="6.66914" filterUnits="userSpaceOnUse" color-interpolation-filters="sRGB">
<feFlood flood-opacity="0" result="BackgroundImageFix"/>
<feBlend mode="normal" in="SourceGraphic" in2="BackgroundImageFix" result="shape"/>
<feTurbulence type="fractalNoise" baseFrequency="1 1" numOctaves="3" seed="9146" />
<feDisplacementMap in="shape" scale="0.80000001192092896" xChannelSelector="R" yChannelSelector="G" result="displacedImage" width="100%" height="100%" />
<feMerge result="effect1_texture_757_17709">
<feMergeNode in="displacedImage"/>
</feMerge>
</filter>
<filter id="filter27_g_757_17709" x="92.2445" y="214.865" width="14.1828" height="6.66914" filterUnits="userSpaceOnUse" color-interpolation-filters="sRGB">
<feFlood flood-opacity="0" result="BackgroundImageFix"/>
<feBlend mode="normal" in="SourceGraphic" in2="BackgroundImageFix" result="shape"/>
<feTurbulence type="fractalNoise" baseFrequency="1 1" numOctaves="3" seed="9146" />
<feDisplacementMap in="shape" scale="0.80000001192092896" xChannelSelector="R" yChannelSelector="G" result="displacedImage" width="100%" height="100%" />
<feMerge result="effect1_texture_757_17709">
<feMergeNode in="displacedImage"/>
</feMerge>
</filter>
<filter id="filter28_g_757_17709" x="60.3354" y="177.996" width="17.548" height="7.80439" filterUnits="userSpaceOnUse" color-interpolation-filters="sRGB">
<feFlood flood-opacity="0" result="BackgroundImageFix"/>
<feBlend mode="normal" in="SourceGraphic" in2="BackgroundImageFix" result="shape"/>
<feTurbulence type="fractalNoise" baseFrequency="1 1" numOctaves="3" seed="9146" />
<feDisplacementMap in="shape" scale="0.80000001192092896" xChannelSelector="R" yChannelSelector="G" result="displacedImage" width="100%" height="100%" />
<feMerge result="effect1_texture_757_17709">
<feMergeNode in="displacedImage"/>
</feMerge>
</filter>
<filter id="filter29_g_757_17709" x="130.383" y="179.166" width="17.548" height="7.80439" filterUnits="userSpaceOnUse" color-interpolation-filters="sRGB">
<feFlood flood-opacity="0" result="BackgroundImageFix"/>
<feBlend mode="normal" in="SourceGraphic" in2="BackgroundImageFix" result="shape"/>
<feTurbulence type="fractalNoise" baseFrequency="1 1" numOctaves="3" seed="9146" />
<feDisplacementMap in="shape" scale="0.80000001192092896" xChannelSelector="R" yChannelSelector="G" result="displacedImage" width="100%" height="100%" />
<feMerge result="effect1_texture_757_17709">
<feMergeNode in="displacedImage"/>
</feMerge>
</filter>
<filter id="filter30_g_757_17709" x="21.6273" y="101.862" width="169.34" height="108.431" filterUnits="userSpaceOnUse" color-interpolation-filters="sRGB">
<feFlood flood-opacity="0" result="BackgroundImageFix"/>
<feBlend mode="normal" in="SourceGraphic" in2="BackgroundImageFix" result="shape"/>
<feTurbulence type="fractalNoise" baseFrequency="1 1" numOctaves="3" seed="9146" />
<feDisplacementMap in="shape" scale="0.80000001192092896" xChannelSelector="R" yChannelSelector="G" result="displacedImage" width="100%" height="100%" />
<feMerge result="effect1_texture_757_17709">
<feMergeNode in="displacedImage"/>
</feMerge>
</filter>
<filter id="filter31_g_757_17709" x="48.6554" y="187.338" width="113.182" height="33.9959" filterUnits="userSpaceOnUse" color-interpolation-filters="sRGB">
<feFlood flood-opacity="0" result="BackgroundImageFix"/>
<feBlend mode="normal" in="SourceGraphic" in2="BackgroundImageFix" result="shape"/>
<feTurbulence type="fractalNoise" baseFrequency="0.71372765302658081 0.71372765302658081" numOctaves="3" seed="9146" />
<feDisplacementMap in="shape" scale="1.1208757162094116" xChannelSelector="R" yChannelSelector="G" result="displacedImage" width="100%" height="100%" />
<feMerge result="effect1_texture_757_17709">
<feMergeNode in="displacedImage"/>
</feMerge>
</filter>
<filter id="filter32_g_757_17709" x="3.65254" y="0.000195265" width="206.646" height="24.3067" filterUnits="userSpaceOnUse" color-interpolation-filters="sRGB">
<feFlood flood-opacity="0" result="BackgroundImageFix"/>
<feBlend mode="normal" in="SourceGraphic" in2="BackgroundImageFix" result="shape"/>
<feTurbulence type="fractalNoise" baseFrequency="0.28571429848670959 0.28571429848670959" numOctaves="3" seed="8608" />
<feDisplacementMap in="shape" scale="2.4000000953674316" xChannelSelector="R" yChannelSelector="G" result="displacedImage" width="100%" height="100%" />
<feMerge result="effect1_texture_757_17709">
<feMergeNode in="displacedImage"/>
</feMerge>
</filter>
</defs>
</svg>
