<svg width="58" height="34" viewBox="0 0 58 34" fill="none" xmlns="http://www.w3.org/2000/svg">
<g filter="url(#filter0_g_706_8347)">
<path d="M3.87705 4.55986C4.81961 1.12292 9.13279 -0.000808716 11.6328 2.53908L20.058 9.15621C20.5676 8.43064 21.1474 7.90469 21.7931 7.52344C23.4498 6.54518 25.5398 6.51972 27.9876 6.51968C30.5793 6.51968 32.8657 6.87189 34.5933 8.03613C35.5461 8.67819 36.3289 9.56722 36.8993 10.7803L46.2796 3.79445C48.8967 1.37576 53.151 2.70243 53.9304 6.17988L56.0448 15.6121C56.1857 16.2405 56.1927 16.8917 56.0674 17.5234L53.9044 28.4311C53.1763 32.1014 48.6171 33.4319 46.029 30.7296L36.8993 22.9614C35.2247 26.1774 31.8642 26.6101 27.9876 26.6101C24.1694 26.61 20.9452 25.6923 19.246 22.5554L10.6122 29.4561C7.89952 32.0331 3.40849 30.489 2.85424 26.7885L1.20714 15.7904C1.11176 15.1535 1.15084 14.5036 1.32116 13.8826L3.87705 4.55986Z" fill="#902923"/>
<path d="M4.99219 4.86597C5.69907 2.28836 8.93352 1.44535 10.8086 3.35034L10.8604 3.40308L10.9189 3.448L19.3438 10.0652L20.3027 10.8191L21.0039 9.82104C21.4231 9.2242 21.883 8.81331 22.3809 8.51929C23.7147 7.73165 25.4587 7.67558 27.9873 7.67554C30.5137 7.67554 32.5123 8.02789 33.9473 8.99487C34.7216 9.5167 35.3691 10.242 35.8535 11.2722L36.4551 12.5525L37.5898 11.7078L46.9697 4.72144L47.0195 4.6853L47.0645 4.64331C49.027 2.82978 52.2181 3.8242 52.8027 6.43237L54.917 15.865C55.0092 16.2764 55.0245 16.7018 54.9639 17.1199L54.9336 17.2986L52.7705 28.2058C52.2245 30.9583 48.8055 31.9567 46.8643 29.9304L46.8232 29.8875L46.7783 29.8494L37.6484 22.0808L36.5439 21.1414L35.874 22.4275C34.5493 24.9715 31.9084 25.4539 27.9873 25.4539C24.3064 25.4538 21.6525 24.5703 20.2627 22.0046L19.6045 20.7888L18.5244 21.6521L9.89062 28.5535L9.85156 28.5837L9.81641 28.6179C7.78187 30.5507 4.41276 29.3923 3.99707 26.6169L2.35059 15.6189C2.27918 15.1418 2.30773 14.6544 2.43555 14.1882H2.43652L4.99219 4.86597Z" stroke="#541F1F" stroke-width="2.31205"/>
</g>
<g filter="url(#filter1_g_706_8347)">
<path d="M44.3957 13.371L38.6691 16.1603M36.5749 17.1804L38.6691 16.1603M38.6691 16.1603L45.002 21.4343" stroke="#541F1F" stroke-width="2.31205"/>
</g>
<g style="mix-blend-mode:lighten">
<path d="M6.96582 16.0014L9.15919 8.39697L15.9589 10.5178L19.5416 14.1736L22.9049 9.42109L31.6055 10.006L36.2118 14.1736L37.016 19.1454L30.9475 23.6054H26.195L23.636 22.3624L20.3458 18.6336L15.9589 20.7539L13.9848 21.7044L8.13563 23.6054L6.96582 16.0014Z" fill="#541F1F"/>
<path d="M6.96582 16.0014L9.15919 8.39697L15.9589 10.5178L19.5416 14.1736L22.9049 9.42109L31.6055 10.006L36.2118 14.1736L37.016 19.1454L30.9475 23.6054H26.195L23.636 22.3624L20.3458 18.6336L15.9589 20.7539L13.9848 21.7044L8.13563 23.6054L6.96582 16.0014Z" stroke="#541F1F" stroke-width="2.31205"/>
</g>
<defs>
<filter id="filter0_g_706_8347" x="0.000226974" y="-1.71661e-05" width="57.312" height="33.3152" filterUnits="userSpaceOnUse" color-interpolation-filters="sRGB">
<feFlood flood-opacity="0" result="BackgroundImageFix"/>
<feBlend mode="normal" in="SourceGraphic" in2="BackgroundImageFix" result="shape"/>
<feTurbulence type="fractalNoise" baseFrequency="0.14417244493961334 0.14417244493961334" numOctaves="3" seed="5141" />
<feDisplacementMap in="shape" scale="2.3120460510253906" xChannelSelector="R" yChannelSelector="G" result="displacedImage" width="100%" height="100%" />
<feMerge result="effect1_texture_706_8347">
<feMergeNode in="displacedImage"/>
</feMerge>
</filter>
<filter id="filter1_g_706_8347" x="35.1435" y="11.4068" width="11.5235" height="11.8406" filterUnits="userSpaceOnUse" color-interpolation-filters="sRGB">
<feFlood flood-opacity="0" result="BackgroundImageFix"/>
<feBlend mode="normal" in="SourceGraphic" in2="BackgroundImageFix" result="shape"/>
<feTurbulence type="fractalNoise" baseFrequency="0.22764070332050323 0.22764070332050323" numOctaves="3" seed="5141" />
<feDisplacementMap in="shape" scale="1.8496369123458862" xChannelSelector="R" yChannelSelector="G" result="displacedImage" width="100%" height="100%" />
<feMerge result="effect1_texture_706_8347">
<feMergeNode in="displacedImage"/>
</feMerge>
</filter>
</defs>
</svg>
