<svg width="18" height="21" viewBox="0 0 18 21" fill="none" xmlns="http://www.w3.org/2000/svg">
<g filter="url(#filter0_g_774_716)">
<mask id="mask0_774_716" style="mask-type:alpha" maskUnits="userSpaceOnUse" x="2" y="2" width="13" height="17">
<path d="M12.2274 14.5702C9.74216 18.8748 5.76865 18.9189 4.36756 18.11C2.96647 17.3011 1.01262 13.8348 3.4979 9.53019C5.98318 5.22555 11.9665 1.7126 13.3676 2.52152C14.7687 3.33044 14.7127 10.2656 12.2274 14.5702Z" fill="#D29C48"/>
</mask>
<g mask="url(#mask0_774_716)">
<rect x="9.24918" y="-5.06653" width="18.9798" height="29.2235" transform="rotate(30 9.24918 -5.06653)" fill="#E29B2F"/>
<g filter="url(#filter1_g_774_716)">
<path d="M9.97163 11.0287C9.45654 11.9209 8.7428 13.2739 7.83763 14.673C6.14074 17.2958 3.35358 20.2898 2.44269 17.3017C1.72617 14.9512 1.67968 11.3953 4.22076 8.16974C6.69915 5.2136 11.9604 -0.0881452 13.99 1.48945C14.3559 1.87719 13.7672 1.5021 13.4288 2.96005C12.7685 5.8041 10.9855 9.27269 9.97163 11.0287Z" fill="#E29B2F"/>
</g>
<g filter="url(#filter2_g_774_716)">
<path d="M11.0947 11.5062C10.0808 13.2622 7.4916 17.1635 5.34835 18.1693C0.93414 20.2408 10.8863 21.977 14.1182 13.884C15.4391 10.2596 16.0175 3.12973 13.6365 2.16089C13.1178 2.03786 13.6366 2.16095 13.7932 3.54258C14.0327 5.65526 12.1085 9.75013 11.0947 11.5062Z" fill="#E29B2F"/>
</g>
<g filter="url(#filter3_g_774_716)">
<path d="M7.41383 9.29855C6.39998 11.0546 4.31592 15.2476 4.51652 17.6066C4.92967 22.4651 -1.55003 14.7144 3.84281 7.86897C6.3212 4.91283 12.2066 0.846996 14.2362 2.4246C14.6021 2.81233 14.2361 2.42459 12.9613 2.97977C11.0119 3.82871 8.42768 7.54251 7.41383 9.29855Z" fill="#E29B2F"/>
</g>
<g filter="url(#filter4_g_774_716)">
<path d="M7.1941 9.17148C6.18025 10.9275 4.0962 15.1205 4.2968 17.4795C4.70995 22.3381 -1.76975 14.5874 3.62308 7.7419C6.10147 4.78575 11.9869 0.719921 14.0164 2.29752C14.3824 2.68525 14.0164 2.29752 12.7415 2.85269C10.7921 3.70163 8.20796 7.41544 7.1941 9.17148Z" fill="#BC7E1E"/>
</g>
<g filter="url(#filter5_g_774_716)">
<path d="M6.6316 8.92954C5.61775 10.6856 3.5337 14.8786 3.7343 17.2376C4.14745 22.0961 -2.33225 14.3454 3.06058 7.49995C5.53897 4.54381 11.4244 0.477977 13.4539 2.05558C13.8199 2.44331 13.4539 2.05557 12.179 2.61075C10.2296 3.45969 7.64546 7.17349 6.6316 8.92954Z" fill="#A7701C"/>
<path d="M6.6316 8.92954C5.61775 10.6856 3.5337 14.8786 3.7343 17.2376C4.14745 22.0961 -2.33225 14.3454 3.06058 7.49995C5.53897 4.54381 11.4244 0.477977 13.4539 2.05558C13.8199 2.44331 13.4539 2.05557 12.179 2.61075C10.2296 3.45969 7.64546 7.17349 6.6316 8.92954Z" fill="#BC7E1E"/>
</g>
<g filter="url(#filter6_g_774_716)">
<path d="M3.90154 10.293C3.03587 11.7924 2.82807 13.6263 3.41889 15.9048C3.62988 16.7185 4.09295 17.6564 3.61519 18.348C2.51411 19.942 -2.72677 12.8777 1.99458 6.88456C4.47298 3.92842 10.3584 -0.137418 12.3879 1.44018C12.7539 1.82791 12.5375 2.06496 11.2627 2.62014C9.31331 3.46908 4.91539 8.53693 3.90154 10.293Z" fill="#A7701C"/>
<path d="M3.90154 10.293C3.03587 11.7924 2.82807 13.6263 3.41889 15.9048C3.62988 16.7185 4.09295 17.6564 3.61519 18.348C2.51411 19.942 -2.72677 12.8777 1.99458 6.88456C4.47298 3.92842 10.3584 -0.137418 12.3879 1.44018C12.7539 1.82791 12.5375 2.06496 11.2627 2.62014C9.31331 3.46908 4.91539 8.53693 3.90154 10.293Z" fill="#F4B657"/>
</g>
<g filter="url(#filter7_g_774_716)">
<path d="M11.3334 14.5834C10.4677 16.0828 8.98339 17.1797 6.71474 17.8073C5.90458 18.0314 4.86078 18.0994 4.5007 18.8589C3.67081 20.6095 12.4091 21.6161 15.2386 14.5307C16.5595 10.9063 17.138 3.77644 14.7569 2.8076C14.2382 2.68456 14.1411 2.99043 14.2977 4.37206C14.5372 6.48475 12.3473 12.8274 11.3334 14.5834Z" fill="#A7701C"/>
<path d="M11.3334 14.5834C10.4677 16.0828 8.98339 17.1797 6.71474 17.8073C5.90458 18.0314 4.86078 18.0994 4.5007 18.8589C3.67081 20.6095 12.4091 21.6161 15.2386 14.5307C16.5595 10.9063 17.138 3.77644 14.7569 2.8076C14.2382 2.68456 14.1411 2.99043 14.2977 4.37206C14.5372 6.48475 12.3473 12.8274 11.3334 14.5834Z" fill="#F4B657"/>
</g>
<g filter="url(#filter8_g_774_716)">
<path d="M12.5303 4.41245C12.4179 4.9217 12.7033 5.61406 12.4716 6.69681C12.2551 7.70833 12.0166 8.46117 12.0813 8.68478C12.2152 9.14776 12.555 8.79195 12.7189 8.48311C12.8828 8.17427 13.5152 7.09057 13.6965 5.36954C13.8777 3.64852 13.5866 2.71807 13.0962 3.03466C12.7173 3.27928 12.6426 3.9032 12.5303 4.41245Z" fill="#F7D094" fill-opacity="0.7"/>
</g>
</g>
</g>
<g filter="url(#filter9_g_774_716)">
<path d="M13.6175 2.08884C13.9208 2.26394 14.1291 2.56783 14.2763 2.88529C14.4275 3.21154 14.541 3.60971 14.622 4.05015C14.7844 4.93274 14.8305 6.05295 14.754 7.26683C14.6013 9.68981 13.9531 12.5818 12.6603 14.8209C10.0524 19.3376 5.78362 19.5053 4.1175 18.5433C2.45195 17.5816 0.456777 13.7983 3.0647 9.28087C4.35748 7.04173 6.53914 5.03503 8.56243 3.69212C9.57622 3.01927 10.5706 2.4999 11.4167 2.19956C11.8389 2.0497 12.2401 1.9486 12.5984 1.91654C12.9469 1.88537 13.3143 1.91379 13.6175 2.08884Z" stroke="#634120"/>
</g>
<defs>
<filter id="filter0_g_774_716" x="2.21704" y="2.31613" width="12.1619" height="16.2884" filterUnits="userSpaceOnUse" color-interpolation-filters="sRGB">
<feFlood flood-opacity="0" result="BackgroundImageFix"/>
<feBlend mode="normal" in="SourceGraphic" in2="BackgroundImageFix" result="shape"/>
<feTurbulence type="fractalNoise" baseFrequency="4.5055065155029297 4.5055065155029297" numOctaves="3" seed="9146" />
<feDisplacementMap in="shape" scale="0.17756049335002899" xChannelSelector="R" yChannelSelector="G" result="displacedImage" width="100%" height="100%" />
<feMerge result="effect1_texture_774_716">
<feMergeNode in="displacedImage"/>
</feMerge>
</filter>
<filter id="filter1_g_774_716" x="1.92993" y="1.11349" width="12.2645" height="17.5228" filterUnits="userSpaceOnUse" color-interpolation-filters="sRGB">
<feFlood flood-opacity="0" result="BackgroundImageFix"/>
<feBlend mode="normal" in="SourceGraphic" in2="BackgroundImageFix" result="shape"/>
<feTurbulence type="fractalNoise" baseFrequency="4.5055065155029297 4.5055065155029297" numOctaves="3" seed="9146" />
<feDisplacementMap in="shape" scale="0.17756049335002899" xChannelSelector="R" yChannelSelector="G" result="displacedImage" width="100%" height="100%" />
<feMerge result="effect1_texture_774_716">
<feMergeNode in="displacedImage"/>
</feMerge>
</filter>
<filter id="filter2_g_774_716" x="4.14868" y="2.03549" width="11.2059" height="17.9542" filterUnits="userSpaceOnUse" color-interpolation-filters="sRGB">
<feFlood flood-opacity="0" result="BackgroundImageFix"/>
<feBlend mode="normal" in="SourceGraphic" in2="BackgroundImageFix" result="shape"/>
<feTurbulence type="fractalNoise" baseFrequency="4.5055065155029297 4.5055065155029297" numOctaves="3" seed="9146" />
<feDisplacementMap in="shape" scale="0.17756049335002899" xChannelSelector="R" yChannelSelector="G" result="displacedImage" width="100%" height="100%" />
<feMerge result="effect1_texture_774_716">
<feMergeNode in="displacedImage"/>
</feMerge>
</filter>
<filter id="filter3_g_774_716" x="1.59888" y="1.98385" width="12.8602" height="17.2313" filterUnits="userSpaceOnUse" color-interpolation-filters="sRGB">
<feFlood flood-opacity="0" result="BackgroundImageFix"/>
<feBlend mode="normal" in="SourceGraphic" in2="BackgroundImageFix" result="shape"/>
<feTurbulence type="fractalNoise" baseFrequency="4.5055065155029297 4.5055065155029297" numOctaves="3" seed="9146" />
<feDisplacementMap in="shape" scale="0.17756049335002899" xChannelSelector="R" yChannelSelector="G" result="displacedImage" width="100%" height="100%" />
<feMerge result="effect1_texture_774_716">
<feMergeNode in="displacedImage"/>
</feMerge>
</filter>
<filter id="filter4_g_774_716" x="1.37915" y="1.85678" width="12.8602" height="17.2313" filterUnits="userSpaceOnUse" color-interpolation-filters="sRGB">
<feFlood flood-opacity="0" result="BackgroundImageFix"/>
<feBlend mode="normal" in="SourceGraphic" in2="BackgroundImageFix" result="shape"/>
<feTurbulence type="fractalNoise" baseFrequency="4.5055065155029297 4.5055065155029297" numOctaves="3" seed="9146" />
<feDisplacementMap in="shape" scale="0.17756049335002899" xChannelSelector="R" yChannelSelector="G" result="displacedImage" width="100%" height="100%" />
<feMerge result="effect1_texture_774_716">
<feMergeNode in="displacedImage"/>
</feMerge>
</filter>
<filter id="filter5_g_774_716" x="0.816652" y="1.61483" width="12.8602" height="17.2313" filterUnits="userSpaceOnUse" color-interpolation-filters="sRGB">
<feFlood flood-opacity="0" result="BackgroundImageFix"/>
<feBlend mode="normal" in="SourceGraphic" in2="BackgroundImageFix" result="shape"/>
<feTurbulence type="fractalNoise" baseFrequency="4.5055065155029297 4.5055065155029297" numOctaves="3" seed="9146" />
<feDisplacementMap in="shape" scale="0.17756049335002899" xChannelSelector="R" yChannelSelector="G" result="displacedImage" width="100%" height="100%" />
<feMerge result="effect1_texture_774_716">
<feMergeNode in="displacedImage"/>
</feMerge>
</filter>
<filter id="filter6_g_774_716" x="-0.0339344" y="0.999355" width="12.6707" height="17.6657" filterUnits="userSpaceOnUse" color-interpolation-filters="sRGB">
<feFlood flood-opacity="0" result="BackgroundImageFix"/>
<feBlend mode="normal" in="SourceGraphic" in2="BackgroundImageFix" result="shape"/>
<feTurbulence type="fractalNoise" baseFrequency="4.5055065155029297 4.5055065155029297" numOctaves="3" seed="9146" />
<feDisplacementMap in="shape" scale="0.17756049335002899" xChannelSelector="R" yChannelSelector="G" result="displacedImage" width="100%" height="100%" />
<feMerge result="effect1_texture_774_716">
<feMergeNode in="displacedImage"/>
</feMerge>
</filter>
<filter id="filter7_g_774_716" x="4.35669" y="2.69406" width="12.118" height="17.527" filterUnits="userSpaceOnUse" color-interpolation-filters="sRGB">
<feFlood flood-opacity="0" result="BackgroundImageFix"/>
<feBlend mode="normal" in="SourceGraphic" in2="BackgroundImageFix" result="shape"/>
<feTurbulence type="fractalNoise" baseFrequency="4.5055065155029297 4.5055065155029297" numOctaves="3" seed="9146" />
<feDisplacementMap in="shape" scale="0.17756049335002899" xChannelSelector="R" yChannelSelector="G" result="displacedImage" width="100%" height="100%" />
<feMerge result="effect1_texture_774_716">
<feMergeNode in="displacedImage"/>
</feMerge>
</filter>
<filter id="filter8_g_774_716" x="11.9817" y="2.88461" width="1.85822" height="6.11128" filterUnits="userSpaceOnUse" color-interpolation-filters="sRGB">
<feFlood flood-opacity="0" result="BackgroundImageFix"/>
<feBlend mode="normal" in="SourceGraphic" in2="BackgroundImageFix" result="shape"/>
<feTurbulence type="fractalNoise" baseFrequency="4.5055065155029297 4.5055065155029297" numOctaves="3" seed="9146" />
<feDisplacementMap in="shape" scale="0.17756049335002899" xChannelSelector="R" yChannelSelector="G" result="displacedImage" width="100%" height="100%" />
<feMerge result="effect1_texture_774_716">
<feMergeNode in="displacedImage"/>
</feMerge>
</filter>
<filter id="filter9_g_774_716" x="1.219" y="1.31649" width="14.16" height="18.2906" filterUnits="userSpaceOnUse" color-interpolation-filters="sRGB">
<feFlood flood-opacity="0" result="BackgroundImageFix"/>
<feBlend mode="normal" in="SourceGraphic" in2="BackgroundImageFix" result="shape"/>
<feTurbulence type="fractalNoise" baseFrequency="4.5055065155029297 4.5055065155029297" numOctaves="3" seed="9146" />
<feDisplacementMap in="shape" scale="0.17756049335002899" xChannelSelector="R" yChannelSelector="G" result="displacedImage" width="100%" height="100%" />
<feMerge result="effect1_texture_774_716">
<feMergeNode in="displacedImage"/>
</feMerge>
</filter>
</defs>
</svg>
