<svg width="69" height="57" viewBox="0 0 69 57" fill="none" xmlns="http://www.w3.org/2000/svg">
<g filter="url(#filter0_g_706_10210)">
<path d="M43.6574 32.0095L40.2902 29.3634L30.1861 27.7997L26.8182 28.4011L19.2402 29.3634L16.4741 26.4766L11.3017 27.7997L9.01636 24.9129L5.04704 22.9884L3.84474 16.854L0.958008 12.0427L3.84474 4.7055H7.69292L16.4741 2.17957L19.2402 -1.78975L28.1416 -2.87231L33.5542 -0.226088L35.5989 2.9012L41.9739 -0.226088L47.8677 3.62293L54.8441 2.9012L58.4525 3.62293L62.5421 10.1181L67.7143 12.0427L65.91 19.6205L63.6247 24.9129C61.9006 25.1535 58.2841 25.6827 57.6106 25.8752C56.937 26.0676 55.4856 28.7619 54.8441 30.085H49.1908L43.6574 32.0095Z" fill="#388931"/>
<path d="M30.7868 27.3186C29.3033 25.354 26.1439 21.3526 25.3738 21.0639L20.9237 20.4625L16.8341 22.7478H12.7062H12.3837L11.1807 21.0639L12.7062 20.7473L17.5556 19.7408L19.9613 19.019C18.999 18.578 16.9302 17.696 16.3528 17.696C15.7755 17.696 14.3479 16.2526 13.7064 15.5309L15.6312 14.5686L18.5177 16.2526L22.2468 17.696H26.3364L27.9001 19.7408L32.1099 22.7478L34.7562 23.5898L36.4401 22.7478L38.4849 19.019L42.6948 15.5309L45.4957 11.9519L47.025 9.99792L48.8292 11.0805L48.0832 11.8265L45.341 14.5686L44.2585 17.696L39.9283 20.4625L38.4849 23.5898H40.7703L42.6948 22.7478L45.341 20.4625L48.8292 19.019L52.0768 17.696L54.1721 16.798L55.4447 16.2526V19.019L54.5508 19.2685L50.2726 20.4625L46.183 23.5898L41.8528 26.1157L39.9283 28.5214L40.4023 34.6828L40.7703 39.4671L41.8528 47.2854L42.6948 52.0967L44.2585 54.5024L40.7703 55.4647C38.4849 55.5047 33.7698 55.5609 33.1925 55.4647C32.6151 55.3684 30.6265 54.7831 29.7043 54.5024L30.7868 50.0519V31.2669V27.3186Z" fill="#AA613E"/>
<path d="M30.7868 27.3186C29.3033 25.354 26.1439 21.3526 25.3738 21.0639L20.9237 20.4625L16.8341 22.7478H12.7062H12.3837L11.1807 21.0639L12.7062 20.7473L17.5556 19.7408L19.9613 19.019C18.999 18.578 16.9302 17.696 16.3528 17.696C15.7755 17.696 14.3479 16.2526 13.7064 15.5309L15.6312 14.5686L18.5177 16.2526L22.2468 17.696H26.3364L27.9001 19.7408L32.1099 22.7478L34.7562 23.5898L36.4401 22.7478L38.4849 19.019L42.6948 15.5309L45.4957 11.9519L47.025 9.99792L48.8292 11.0805L48.0832 11.8265L45.341 14.5686L44.2585 17.696L39.9283 20.4625L38.4849 23.5898H40.7703L42.6948 22.7478L45.341 20.4625L48.8292 19.019L52.0768 17.696L54.1721 16.798L55.4447 16.2526V19.019L54.5508 19.2685L50.2726 20.4625L46.183 23.5898L41.8528 26.1157L39.9283 28.5214L40.4023 34.6828L40.7703 39.4671L41.8528 47.2854L42.6948 52.0967L44.2585 54.5024L40.7703 55.4647C38.4849 55.5047 33.7698 55.5609 33.1925 55.4647C32.6151 55.3684 30.6265 54.7831 29.7043 54.5024L30.7868 50.0519V31.2669V27.3186Z" fill="#AA613E"/>
<path fill-rule="evenodd" clip-rule="evenodd" d="M12.7062 22.7478H16.8341L20.9237 20.4625L25.3738 21.0639C26.1439 21.3526 29.3033 25.354 30.7868 27.3186V31.2669C31.2532 31.1669 32.5683 31.2405 33.2123 31.2941C33.8784 31.3231 35.2455 31.52 35.3845 32.0761C35.4232 32.231 35.4576 32.4117 35.4935 32.6C35.6186 33.2571 35.7613 34.0071 36.1665 34.0746C36.5836 34.1441 38.0202 34.509 38.6863 34.6828H40.4023L39.9283 28.5214L41.8528 26.1157L46.183 23.5898L50.2726 20.4625L54.5508 19.2685L54.1721 16.798L52.0768 17.696L48.8292 19.019L45.341 20.4625L42.6948 22.7478L40.7703 23.5898H38.4849L39.9283 20.4625L44.2585 17.696L45.341 14.5686L48.0832 11.8265L45.4957 11.9519L42.6948 15.5309L38.4849 19.019L36.4401 22.7478L34.7562 23.5898L32.1099 22.7478L27.9001 19.7408L26.3364 17.696H22.2468L18.5177 16.2526L15.6312 14.5686L13.7064 15.5309C14.3479 16.2526 15.7755 17.696 16.3528 17.696C16.9302 17.696 18.999 18.578 19.9613 19.019L17.5556 19.7408L12.7062 20.7473V22.7478Z" fill="#8D4E34"/>
<mask id="mask0_706_10210" style="mask-type:alpha" maskUnits="userSpaceOnUse" x="0" y="-4" width="69" height="37">
<path d="M28.25 -3.09351L33.6631 -0.447021L33.7236 -0.417725L33.7607 -0.361084L35.6855 2.58521L41.8672 -0.447021L41.9922 -0.508545L42.1094 -0.432373L47.9287 3.36841L54.8193 2.65649L54.8564 2.65259L54.8936 2.6604L58.6045 3.40259L58.6611 3.49146L62.707 9.91626L67.8008 11.8127L68.0039 11.8879L67.9541 12.0989L66.1494 19.677L66.1445 19.6975L66.1357 19.717L63.8506 25.01L63.7959 25.136L63.6592 25.1555C62.7981 25.2757 61.4643 25.4675 60.2627 25.6536C59.0504 25.8413 57.9967 26.0197 57.6787 26.1106C57.648 26.1196 57.5846 26.1539 57.4893 26.2395C57.3976 26.3219 57.2923 26.4371 57.1768 26.5813C56.9454 26.8698 56.687 27.2563 56.4258 27.6838C55.904 28.538 55.3839 29.5348 55.0654 30.1917L54.999 30.3303H49.2334L43.7393 32.2405L43.6123 32.2844L43.5068 32.2024L40.1904 29.595L30.1895 28.0471L26.8623 28.6418L26.8496 28.6448V28.6438L19.2725 29.6067L19.1494 29.6223L19.0645 29.5325L16.3965 26.7493L11.3633 28.0374L11.209 28.0764L11.1104 27.9514L8.85938 25.1086L4.94141 23.2083L4.83105 23.1555L4.80762 23.0354L3.61328 16.9426L0.749023 12.1682L0.686523 12.0647L0.730469 11.9524L3.61719 4.61548L3.67871 4.45923H7.66016L16.3232 1.96704L19.04 -1.93042L19.1025 -2.02026L19.2119 -2.03394L28.1133 -3.11597L28.1855 -3.12476L28.25 -3.09351ZM39.2109 22.2776L37.668 23.8889L39.4463 25.4651L42.1035 24.7395L44.2031 23.135L46.1152 24.0403L47.7119 23.2083L49.5566 22.7043L50.1396 20.4827L48.2617 20.2825L46.1475 20.384L41.25 19.5803L39.2109 22.2776ZM16.3711 18.4846L15.2373 19.6887L16.1426 21.636L17.8555 21.553L19.3301 20.4856L20.3965 21.8118L21.4727 21.3772L22.6631 21.3186L23.2803 19.2981L22.1523 18.6633L20.8447 18.2668L17.9365 16.3411L16.3711 18.4846Z" fill="#AEDB74"/>
</mask>
<g mask="url(#mask0_706_10210)">
<path d="M43.6574 32.0095L40.2902 29.3634L30.1861 27.7997L26.8182 28.4011L19.2402 29.3634L16.4741 26.4766L11.3017 27.7997L9.01636 24.9129L5.04704 22.9884L3.84474 16.854L0.958008 12.0427L3.84474 4.7055H7.69292L16.4741 2.17957L19.2402 -1.78975L28.1416 -2.87231L33.5542 -0.226088L35.5989 2.9012L41.9739 -0.226088L47.8677 3.62293L54.8441 2.9012L58.4525 3.62293L62.5421 10.1181L67.7143 12.0427L65.91 19.6205L63.6247 24.9129C61.9006 25.1535 58.2841 25.6827 57.6106 25.8752C56.937 26.0676 55.4856 28.7619 54.8441 30.085H49.1908L43.6574 32.0095Z" fill="#AEDB74"/>
<path d="M57.2682 19.1318L55.3134 18.0667C54.8842 17.95 54.0011 17.6328 53.9023 17.2972C53.8035 16.9617 52.098 17.9804 51.2576 18.5318L49.9156 18.9269L51.4808 20.8359L52.8814 18.7828L55.339 19.6998L55.0877 21.3234L57.3035 22.0382L58.6106 20.2861L61.3245 20.2162L61.1269 19.5451L63.9788 18.7054L65.3204 16.7608L66.6074 14.012L65.5016 12.4235L64.6782 14.5801L62.9168 15.0987L61.7723 16.1649L60.2625 16.6094L59.1134 18.5885L57.2682 19.1318Z" fill="#509E46"/>
<path d="M53.588 8.84407L51.5646 9.91331L50.2386 11.0864L52.577 12.4655L52.7651 11.7917L55.6285 12.5911L57.7968 11.653L60.3451 10.0041L60.2492 8.07102L58.408 9.46341L56.6394 8.96971L55.1039 9.26725L53.588 8.84407Z" fill="#509E46"/>
<path d="M23.3685 15.5614L19.8511 16.1125L17.3072 17.1688L20.0515 20.3794L20.6686 19.483L24.4782 22.1058L28.1426 21.821L32.7253 20.6821L33.5609 17.7892L30.1482 18.9078L27.7952 17.2879L25.3854 16.9499L23.3685 15.5614Z" fill="#509E46"/>
<path d="M20.8567 1.89799L19.3742 2.13028L18.302 2.57548L19.4586 3.92868L19.7188 3.55088L21.3244 4.65633L22.8689 4.53627L24.8004 4.05625L25.1526 2.83695L23.7142 3.30844L22.7225 2.62566L21.7068 2.48323L20.8567 1.89799Z" fill="#509E46"/>
<path d="M56.4802 27.1878L54.5254 26.1227C54.0962 26.006 53.2131 25.6888 53.1143 25.3533C53.0155 25.0177 49.6562 27.7209 48.8159 28.2722L44.1838 26.9829L38.26 27.1878L36.2324 26.9829L33.6419 24.6653L32.3943 26.1227L29.114 26.9829L27.6235 24.8169L24.8198 24.6653L24.0449 27.6012L22.9118 26.1227L17.5437 24.6653L13.3094 25.3533L8.35909 22.636L8.35909 19.9451L5.67501 18.4541L2.21609 15.7478L1.61975 19.3487L0.00931136 27.6011L10.5059 27.6012L24.4625 32.47L41.4358 30.6665L43.3981 33.8072L56.4802 31.8442L57.1389 30.6665L59.4746 30.6665L56.5156 30.0942L57.8227 28.3421L60.5366 28.2722L60.339 27.6012L63.1909 26.7614L64.5324 24.8169L65.8195 22.068L67.5033 15.7478L63.8907 17.0826L63.8903 22.6361L62.1289 23.1547L60.339 22.6361L59.4746 24.6654L57.1389 25.3533L56.4802 27.1878Z" fill="#509E46"/>
</g>
</g>
<defs>
<filter id="filter0_g_706_10210" x="-0.000329494" y="-3.55917" width="68.401" height="59.7638" filterUnits="userSpaceOnUse" color-interpolation-filters="sRGB">
<feFlood flood-opacity="0" result="BackgroundImageFix"/>
<feBlend mode="normal" in="SourceGraphic" in2="BackgroundImageFix" result="shape"/>
<feTurbulence type="fractalNoise" baseFrequency="0.78395456075668335 0.78395456075668335" numOctaves="3" seed="8608" />
<feDisplacementMap in="shape" scale="1.3737058639526367" xChannelSelector="R" yChannelSelector="G" result="displacedImage" width="100%" height="100%" />
<feMerge result="effect1_texture_706_10210">
<feMergeNode in="displacedImage"/>
</feMerge>
</filter>
</defs>
</svg>
